{
	"patcher" : 	{
		"fileversion" : 1,
		"appversion" : 		{
			"major" : 6,
			"minor" : 1,
			"revision" : 10,
			"architecture" : "x86"
		}
,
		"rect" : [ 587.0, 116.0, 684.0, 534.0 ],
		"bglocked" : 0,
		"openinpresentation" : 0,
		"default_fontsize" : 12.0,
		"default_fontface" : 0,
		"default_fontname" : "Arial",
		"gridonopen" : 0,
		"gridsize" : [ 15.0, 15.0 ],
		"gridsnaponopen" : 0,
		"statusbarvisible" : 2,
		"toolbarvisible" : 1,
		"boxanimatetime" : 200,
		"imprint" : 0,
		"enablehscroll" : 1,
		"enablevscroll" : 1,
		"devicewidth" : 0.0,
		"description" : "",
		"digest" : "",
		"tags" : "",
		"boxes" : [ 			{
				"box" : 				{
					"comment" : "",
					"id" : "obj-47",
					"maxclass" : "outlet",
					"numinlets" : 1,
					"numoutlets" : 0,
					"patching_rect" : [ 510.333374, 511.0, 25.0, 25.0 ]
				}

			}
, 			{
				"box" : 				{
					"comment" : "",
					"id" : "obj-48",
					"maxclass" : "outlet",
					"numinlets" : 1,
					"numoutlets" : 0,
					"patching_rect" : [ 495.333344, 496.0, 25.0, 25.0 ]
				}

			}
, 			{
				"box" : 				{
					"comment" : "",
					"id" : "obj-49",
					"maxclass" : "outlet",
					"numinlets" : 1,
					"numoutlets" : 0,
					"patching_rect" : [ 480.333344, 481.0, 25.0, 25.0 ]
				}

			}
, 			{
				"box" : 				{
					"comment" : "",
					"id" : "obj-50",
					"maxclass" : "outlet",
					"numinlets" : 1,
					"numoutlets" : 0,
					"patching_rect" : [ 465.333344, 466.0, 25.0, 25.0 ]
				}

			}
, 			{
				"box" : 				{
					"comment" : "",
					"id" : "obj-51",
					"maxclass" : "outlet",
					"numinlets" : 1,
					"numoutlets" : 0,
					"patching_rect" : [ 448.333344, 511.0, 25.0, 25.0 ]
				}

			}
, 			{
				"box" : 				{
					"comment" : "",
					"id" : "obj-52",
					"maxclass" : "outlet",
					"numinlets" : 1,
					"numoutlets" : 0,
					"patching_rect" : [ 433.333344, 496.0, 25.0, 25.0 ]
				}

			}
, 			{
				"box" : 				{
					"comment" : "",
					"id" : "obj-53",
					"maxclass" : "outlet",
					"numinlets" : 1,
					"numoutlets" : 0,
					"patching_rect" : [ 418.333344, 481.0, 25.0, 25.0 ]
				}

			}
, 			{
				"box" : 				{
					"comment" : "",
					"id" : "obj-54",
					"maxclass" : "outlet",
					"numinlets" : 1,
					"numoutlets" : 0,
					"patching_rect" : [ 403.333344, 466.0, 25.0, 25.0 ]
				}

			}
, 			{
				"box" : 				{
					"comment" : "",
					"id" : "obj-43",
					"maxclass" : "outlet",
					"numinlets" : 1,
					"numoutlets" : 0,
					"patching_rect" : [ 385.0, 511.0, 25.0, 25.0 ]
				}

			}
, 			{
				"box" : 				{
					"comment" : "",
					"id" : "obj-44",
					"maxclass" : "outlet",
					"numinlets" : 1,
					"numoutlets" : 0,
					"patching_rect" : [ 370.0, 496.0, 25.0, 25.0 ]
				}

			}
, 			{
				"box" : 				{
					"comment" : "",
					"id" : "obj-45",
					"maxclass" : "outlet",
					"numinlets" : 1,
					"numoutlets" : 0,
					"patching_rect" : [ 355.0, 481.0, 25.0, 25.0 ]
				}

			}
, 			{
				"box" : 				{
					"comment" : "",
					"id" : "obj-46",
					"maxclass" : "outlet",
					"numinlets" : 1,
					"numoutlets" : 0,
					"patching_rect" : [ 340.0, 466.0, 25.0, 25.0 ]
				}

			}
, 			{
				"box" : 				{
					"comment" : "",
					"id" : "obj-42",
					"maxclass" : "outlet",
					"numinlets" : 1,
					"numoutlets" : 0,
					"patching_rect" : [ 323.0, 511.0, 25.0, 25.0 ]
				}

			}
, 			{
				"box" : 				{
					"comment" : "",
					"id" : "obj-41",
					"maxclass" : "outlet",
					"numinlets" : 1,
					"numoutlets" : 0,
					"patching_rect" : [ 308.0, 496.0, 25.0, 25.0 ]
				}

			}
, 			{
				"box" : 				{
					"comment" : "",
					"id" : "obj-40",
					"maxclass" : "outlet",
					"numinlets" : 1,
					"numoutlets" : 0,
					"patching_rect" : [ 293.0, 481.0, 25.0, 25.0 ]
				}

			}
, 			{
				"box" : 				{
					"comment" : "",
					"id" : "obj-39",
					"maxclass" : "outlet",
					"numinlets" : 1,
					"numoutlets" : 0,
					"patching_rect" : [ 278.0, 466.0, 25.0, 25.0 ]
				}

			}
, 			{
				"box" : 				{
					"fontname" : "Arial",
					"fontsize" : 12.0,
					"id" : "obj-38",
					"linecount" : 2,
					"maxclass" : "newobj",
					"numinlets" : 17,
					"numoutlets" : 16,
					"outlettype" : [ "", "", "", "", "", "", "", "", "", "", "", "", "", "", "", "" ],
					"patching_rect" : [ 290.016663, 261.0, 143.0, 33.0 ],
					"text" : "pipe 1 2 3 4 5 6 7 8 9 10 11 12 13 14 15 16 5"
				}

			}
, 			{
				"box" : 				{
					"fontname" : "Arial",
					"fontsize" : 12.0,
					"id" : "obj-37",
					"maxclass" : "newobj",
					"numinlets" : 0,
					"numoutlets" : 1,
					"outlettype" : [ "" ],
					"patching_rect" : [ 403.333344, 149.0, 61.0, 20.0 ],
					"text" : "r #1-false"
				}

			}
, 			{
				"box" : 				{
					"fontname" : "Arial",
					"fontsize" : 12.0,
					"id" : "obj-36",
					"maxclass" : "newobj",
					"numinlets" : 0,
					"numoutlets" : 1,
					"outlettype" : [ "" ],
					"patching_rect" : [ 495.333344, 274.0, 56.0, 20.0 ],
					"text" : "r #1-true"
				}

			}
, 			{
				"box" : 				{
					"fontname" : "Arial",
					"fontsize" : 12.0,
					"id" : "obj-35",
					"maxclass" : "newobj",
					"numinlets" : 16,
					"numoutlets" : 16,
					"outlettype" : [ "int", "int", "int", "int", "int", "int", "int", "int", "int", "int", "int", "int", "int", "int", "int", "int" ],
					"patching_rect" : [ 69.75, 404.0, 50.5, 20.0 ],
					"text" : "inc16"
				}

			}
, 			{
				"box" : 				{
					"fontname" : "Arial",
					"fontsize" : 12.0,
					"id" : "obj-34",
					"maxclass" : "newobj",
					"numinlets" : 17,
					"numoutlets" : 16,
					"outlettype" : [ "int", "int", "int", "int", "int", "int", "int", "int", "int", "int", "int", "int", "int", "int", "int", "int" ],
					"patching_rect" : [ 332.649994, 323.0, 66.0, 20.0 ],
					"text" : "register"
				}

			}
, 			{
				"box" : 				{
					"fontname" : "Arial",
					"fontsize" : 12.0,
					"id" : "obj-32",
					"maxclass" : "newobj",
					"numinlets" : 33,
					"numoutlets" : 16,
					"outlettype" : [ "int", "int", "int", "int", "int", "int", "int", "int", "int", "int", "int", "int", "int", "int", "int", "int" ],
					"patching_rect" : [ 38.0, 181.0, 64.333344, 20.0 ],
					"text" : "muxer16"
				}

			}
, 			{
				"box" : 				{
					"fontname" : "Arial",
					"fontsize" : 12.0,
					"id" : "obj-31",
					"maxclass" : "newobj",
					"numinlets" : 33,
					"numoutlets" : 16,
					"outlettype" : [ "int", "int", "int", "int", "int", "int", "int", "int", "int", "int", "int", "int", "int", "int", "int", "int" ],
					"patching_rect" : [ 31.991669, 111.0, 76.008331, 20.0 ],
					"text" : "muxer16"
				}

			}
, 			{
				"box" : 				{
					"fontname" : "Arial",
					"fontsize" : 12.0,
					"id" : "obj-30",
					"maxclass" : "newobj",
					"numinlets" : 33,
					"numoutlets" : 16,
					"outlettype" : [ "int", "int", "int", "int", "int", "int", "int", "int", "int", "int", "int", "int", "int", "int", "int", "int" ],
					"patching_rect" : [ 304.0, 205.0, 91.0, 20.0 ],
					"text" : "muxer16"
				}

			}
, 			{
				"box" : 				{
					"annotation" : "reset",
					"comment" : "",
					"id" : "obj-29",
					"maxclass" : "inlet",
					"numinlets" : 0,
					"numoutlets" : 1,
					"outlettype" : [ "" ],
					"patching_rect" : [ 413.333344, 48.0, 25.0, 25.0 ]
				}

			}
, 			{
				"box" : 				{
					"annotation" : "load",
					"comment" : "",
					"id" : "obj-28",
					"maxclass" : "inlet",
					"numinlets" : 0,
					"numoutlets" : 1,
					"outlettype" : [ "" ],
					"patching_rect" : [ 380.666656, 48.0, 25.0, 25.0 ]
				}

			}
, 			{
				"box" : 				{
					"annotation" : "inc",
					"comment" : "",
					"id" : "obj-27",
					"maxclass" : "inlet",
					"numinlets" : 0,
					"numoutlets" : 1,
					"outlettype" : [ "" ],
					"patching_rect" : [ 348.0, 48.0, 25.0, 25.0 ]
				}

			}
, 			{
				"box" : 				{
					"comment" : "",
					"id" : "obj-19",
					"maxclass" : "inlet",
					"numinlets" : 0,
					"numoutlets" : 1,
					"outlettype" : [ "" ],
					"patching_rect" : [ 281.0, 60.0, 25.0, 25.0 ]
				}

			}
, 			{
				"box" : 				{
					"comment" : "",
					"id" : "obj-20",
					"maxclass" : "inlet",
					"numinlets" : 0,
					"numoutlets" : 1,
					"outlettype" : [ "" ],
					"patching_rect" : [ 266.0, 45.0, 25.0, 25.0 ]
				}

			}
, 			{
				"box" : 				{
					"comment" : "",
					"id" : "obj-21",
					"maxclass" : "inlet",
					"numinlets" : 0,
					"numoutlets" : 1,
					"outlettype" : [ "" ],
					"patching_rect" : [ 251.0, 30.0, 25.0, 25.0 ]
				}

			}
, 			{
				"box" : 				{
					"comment" : "",
					"id" : "obj-22",
					"maxclass" : "inlet",
					"numinlets" : 0,
					"numoutlets" : 1,
					"outlettype" : [ "" ],
					"patching_rect" : [ 236.0, 15.0, 25.0, 25.0 ]
				}

			}
, 			{
				"box" : 				{
					"comment" : "",
					"id" : "obj-23",
					"maxclass" : "inlet",
					"numinlets" : 0,
					"numoutlets" : 1,
					"outlettype" : [ "" ],
					"patching_rect" : [ 215.0, 60.0, 25.0, 25.0 ]
				}

			}
, 			{
				"box" : 				{
					"comment" : "",
					"id" : "obj-24",
					"maxclass" : "inlet",
					"numinlets" : 0,
					"numoutlets" : 1,
					"outlettype" : [ "" ],
					"patching_rect" : [ 200.0, 45.0, 25.0, 25.0 ]
				}

			}
, 			{
				"box" : 				{
					"comment" : "",
					"id" : "obj-25",
					"maxclass" : "inlet",
					"numinlets" : 0,
					"numoutlets" : 1,
					"outlettype" : [ "" ],
					"patching_rect" : [ 185.0, 30.0, 25.0, 25.0 ]
				}

			}
, 			{
				"box" : 				{
					"comment" : "",
					"id" : "obj-26",
					"maxclass" : "inlet",
					"numinlets" : 0,
					"numoutlets" : 1,
					"outlettype" : [ "" ],
					"patching_rect" : [ 170.0, 15.0, 25.0, 25.0 ]
				}

			}
, 			{
				"box" : 				{
					"comment" : "",
					"id" : "obj-15",
					"maxclass" : "inlet",
					"numinlets" : 0,
					"numoutlets" : 1,
					"outlettype" : [ "" ],
					"patching_rect" : [ 147.0, 60.0, 25.0, 25.0 ]
				}

			}
, 			{
				"box" : 				{
					"comment" : "",
					"id" : "obj-16",
					"maxclass" : "inlet",
					"numinlets" : 0,
					"numoutlets" : 1,
					"outlettype" : [ "" ],
					"patching_rect" : [ 132.0, 45.0, 25.0, 25.0 ]
				}

			}
, 			{
				"box" : 				{
					"comment" : "",
					"id" : "obj-17",
					"maxclass" : "inlet",
					"numinlets" : 0,
					"numoutlets" : 1,
					"outlettype" : [ "" ],
					"patching_rect" : [ 117.0, 30.0, 25.0, 25.0 ]
				}

			}
, 			{
				"box" : 				{
					"comment" : "",
					"id" : "obj-18",
					"maxclass" : "inlet",
					"numinlets" : 0,
					"numoutlets" : 1,
					"outlettype" : [ "" ],
					"patching_rect" : [ 102.0, 15.0, 25.0, 25.0 ]
				}

			}
, 			{
				"box" : 				{
					"comment" : "",
					"id" : "obj-14",
					"maxclass" : "inlet",
					"numinlets" : 0,
					"numoutlets" : 1,
					"outlettype" : [ "" ],
					"patching_rect" : [ 83.0, 60.0, 25.0, 25.0 ]
				}

			}
, 			{
				"box" : 				{
					"comment" : "",
					"id" : "obj-13",
					"maxclass" : "inlet",
					"numinlets" : 0,
					"numoutlets" : 1,
					"outlettype" : [ "" ],
					"patching_rect" : [ 68.0, 45.0, 25.0, 25.0 ]
				}

			}
, 			{
				"box" : 				{
					"comment" : "",
					"id" : "obj-12",
					"maxclass" : "inlet",
					"numinlets" : 0,
					"numoutlets" : 1,
					"outlettype" : [ "" ],
					"patching_rect" : [ 53.0, 30.0, 25.0, 25.0 ]
				}

			}
, 			{
				"box" : 				{
					"comment" : "",
					"id" : "obj-11",
					"maxclass" : "inlet",
					"numinlets" : 0,
					"numoutlets" : 1,
					"outlettype" : [ "" ],
					"patching_rect" : [ 38.0, 15.0, 25.0, 25.0 ]
				}

			}
, 			{
				"box" : 				{
					"fontname" : "Arial",
					"fontsize" : 12.0,
					"id" : "obj-5",
					"maxclass" : "newobj",
					"numinlets" : 1,
					"numoutlets" : 1,
					"outlettype" : [ "bang" ],
					"patching_rect" : [ 575.0, 5.0, 60.0, 20.0 ],
					"text" : "loadbang"
				}

			}
, 			{
				"box" : 				{
					"fontname" : "Arial",
					"fontsize" : 12.0,
					"id" : "obj-4",
					"maxclass" : "newobj",
					"numinlets" : 2,
					"numoutlets" : 1,
					"outlettype" : [ "int" ],
					"patching_rect" : [ 514.0, 37.0, 32.5, 20.0 ],
					"text" : "0"
				}

			}
, 			{
				"box" : 				{
					"fontname" : "Arial",
					"fontsize" : 12.0,
					"id" : "obj-3",
					"maxclass" : "newobj",
					"numinlets" : 2,
					"numoutlets" : 1,
					"outlettype" : [ "int" ],
					"patching_rect" : [ 577.0, 37.0, 32.5, 20.0 ],
					"text" : "1"
				}

			}
, 			{
				"box" : 				{
					"fontname" : "Arial",
					"fontsize" : 12.0,
					"id" : "obj-2",
					"maxclass" : "newobj",
					"numinlets" : 1,
					"numoutlets" : 0,
					"patching_rect" : [ 514.0, 63.0, 63.0, 20.0 ],
					"text" : "s #1-false"
				}

			}
, 			{
				"box" : 				{
					"fontname" : "Arial",
					"fontsize" : 12.0,
					"id" : "obj-1",
					"maxclass" : "newobj",
					"numinlets" : 1,
					"numoutlets" : 0,
					"patching_rect" : [ 577.0, 63.0, 58.0, 20.0 ],
					"text" : "s #1-true"
				}

			}
 ],
		"lines" : [ 			{
				"patchline" : 				{
					"destination" : [ "obj-32", 0 ],
					"disabled" : 0,
					"hidden" : 0,
					"midpoints" : [ 47.5, 42.0, 39.0, 42.0, 39.0, 96.0, 18.0, 96.0, 18.0, 168.0, 41.0, 168.0 ],
					"source" : [ "obj-11", 0 ]
				}

			}
, 			{
				"patchline" : 				{
					"destination" : [ "obj-32", 1 ],
					"disabled" : 0,
					"hidden" : 0,
					"midpoints" : [ 62.5, 57.0, 54.0, 57.0, 54.0, 96.0, 18.0, 96.0, 18.0, 168.0, 42.822918, 168.0 ],
					"source" : [ "obj-12", 0 ]
				}

			}
, 			{
				"patchline" : 				{
					"destination" : [ "obj-32", 2 ],
					"disabled" : 0,
					"hidden" : 0,
					"midpoints" : [ 77.5, 72.0, 18.0, 72.0, 18.0, 168.0, 44.645836, 168.0 ],
					"source" : [ "obj-13", 0 ]
				}

			}
, 			{
				"patchline" : 				{
					"destination" : [ "obj-32", 3 ],
					"disabled" : 0,
					"hidden" : 0,
					"midpoints" : [ 92.5, 96.0, 18.0, 96.0, 18.0, 168.0, 46.46875, 168.0 ],
					"source" : [ "obj-14", 0 ]
				}

			}
, 			{
				"patchline" : 				{
					"destination" : [ "obj-32", 7 ],
					"disabled" : 0,
					"hidden" : 0,
					"midpoints" : [ 156.5, 168.0, 53.760418, 168.0 ],
					"source" : [ "obj-15", 0 ]
				}

			}
, 			{
				"patchline" : 				{
					"destination" : [ "obj-32", 6 ],
					"disabled" : 0,
					"hidden" : 0,
					"midpoints" : [ 141.5, 72.0, 132.0, 72.0, 132.0, 168.0, 51.9375, 168.0 ],
					"source" : [ "obj-16", 0 ]
				}

			}
, 			{
				"patchline" : 				{
					"destination" : [ "obj-32", 5 ],
					"disabled" : 0,
					"hidden" : 0,
					"midpoints" : [ 126.5, 168.0, 50.114586, 168.0 ],
					"source" : [ "obj-17", 0 ]
				}

			}
, 			{
				"patchline" : 				{
					"destination" : [ "obj-32", 4 ],
					"disabled" : 0,
					"hidden" : 0,
					"midpoints" : [ 111.5, 96.0, 117.0, 96.0, 117.0, 168.0, 48.291668, 168.0 ],
					"source" : [ "obj-18", 0 ]
				}

			}
, 			{
				"patchline" : 				{
					"destination" : [ "obj-32", 15 ],
					"disabled" : 0,
					"hidden" : 0,
					"midpoints" : [ 290.5, 168.0, 68.343758, 168.0 ],
					"source" : [ "obj-19", 0 ]
				}

			}
, 			{
				"patchline" : 				{
					"destination" : [ "obj-32", 14 ],
					"disabled" : 0,
					"hidden" : 0,
					"midpoints" : [ 275.5, 72.0, 252.0, 72.0, 252.0, 168.0, 66.520836, 168.0 ],
					"source" : [ "obj-20", 0 ]
				}

			}
, 			{
				"patchline" : 				{
					"destination" : [ "obj-32", 13 ],
					"disabled" : 0,
					"hidden" : 0,
					"midpoints" : [ 260.5, 57.0, 252.0, 57.0, 252.0, 168.0, 64.697922, 168.0 ],
					"source" : [ "obj-21", 0 ]
				}

			}
, 			{
				"patchline" : 				{
					"destination" : [ "obj-32", 12 ],
					"disabled" : 0,
					"hidden" : 0,
					"midpoints" : [ 245.5, 168.0, 62.875004, 168.0 ],
					"source" : [ "obj-22", 0 ]
				}

			}
, 			{
				"patchline" : 				{
					"destination" : [ "obj-32", 11 ],
					"disabled" : 0,
					"hidden" : 0,
					"midpoints" : [ 224.5, 168.0, 61.052086, 168.0 ],
					"source" : [ "obj-23", 0 ]
				}

			}
, 			{
				"patchline" : 				{
					"destination" : [ "obj-32", 10 ],
					"disabled" : 0,
					"hidden" : 0,
					"midpoints" : [ 209.5, 72.0, 183.0, 72.0, 183.0, 168.0, 59.229172, 168.0 ],
					"source" : [ "obj-24", 0 ]
				}

			}
, 			{
				"patchline" : 				{
					"destination" : [ "obj-32", 9 ],
					"disabled" : 0,
					"hidden" : 0,
					"midpoints" : [ 194.5, 57.0, 186.0, 57.0, 186.0, 168.0, 57.406254, 168.0 ],
					"source" : [ "obj-25", 0 ]
				}

			}
, 			{
				"patchline" : 				{
					"destination" : [ "obj-32", 8 ],
					"disabled" : 0,
					"hidden" : 0,
					"midpoints" : [ 179.5, 168.0, 55.583336, 168.0 ],
					"source" : [ "obj-26", 0 ]
				}

			}
, 			{
				"patchline" : 				{
					"destination" : [ "obj-31", 32 ],
					"disabled" : 0,
					"hidden" : 0,
					"midpoints" : [ 357.5, 108.0, 105.0, 108.0 ],
					"source" : [ "obj-27", 0 ]
				}

			}
, 			{
				"patchline" : 				{
					"destination" : [ "obj-32", 32 ],
					"disabled" : 0,
					"hidden" : 0,
					"midpoints" : [ 390.166656, 168.0, 99.333344, 168.0 ],
					"source" : [ "obj-28", 0 ]
				}

			}
, 			{
				"patchline" : 				{
					"destination" : [ "obj-30", 32 ],
					"disabled" : 0,
					"hidden" : 0,
					"midpoints" : [ 422.833344, 135.0, 392.0, 135.0 ],
					"source" : [ "obj-29", 0 ]
				}

			}
, 			{
				"patchline" : 				{
					"destination" : [ "obj-1", 0 ],
					"disabled" : 0,
					"hidden" : 0,
					"midpoints" : [ 586.5, 57.0, 586.5, 57.0 ],
					"source" : [ "obj-3", 0 ]
				}

			}
, 			{
				"patchline" : 				{
					"destination" : [ "obj-38", 15 ],
					"disabled" : 0,
					"hidden" : 0,
					"midpoints" : [ 385.5, 246.0, 415.766663, 246.0 ],
					"source" : [ "obj-30", 15 ]
				}

			}
, 			{
				"patchline" : 				{
					"destination" : [ "obj-38", 14 ],
					"disabled" : 0,
					"hidden" : 0,
					"midpoints" : [ 380.700012, 246.0, 408.016663, 246.0 ],
					"source" : [ "obj-30", 14 ]
				}

			}
, 			{
				"patchline" : 				{
					"destination" : [ "obj-38", 13 ],
					"disabled" : 0,
					"hidden" : 0,
					"midpoints" : [ 375.899994, 246.0, 400.266663, 246.0 ],
					"source" : [ "obj-30", 13 ]
				}

			}
, 			{
				"patchline" : 				{
					"destination" : [ "obj-38", 12 ],
					"disabled" : 0,
					"hidden" : 0,
					"midpoints" : [ 371.100006, 246.0, 392.516663, 246.0 ],
					"source" : [ "obj-30", 12 ]
				}

			}
, 			{
				"patchline" : 				{
					"destination" : [ "obj-38", 11 ],
					"disabled" : 0,
					"hidden" : 0,
					"midpoints" : [ 366.299988, 246.0, 384.766663, 246.0 ],
					"source" : [ "obj-30", 11 ]
				}

			}
, 			{
				"patchline" : 				{
					"destination" : [ "obj-38", 10 ],
					"disabled" : 0,
					"hidden" : 0,
					"midpoints" : [ 361.5, 246.0, 377.016663, 246.0 ],
					"source" : [ "obj-30", 10 ]
				}

			}
, 			{
				"patchline" : 				{
					"destination" : [ "obj-38", 9 ],
					"disabled" : 0,
					"hidden" : 0,
					"midpoints" : [ 356.700012, 246.0, 369.266663, 246.0 ],
					"source" : [ "obj-30", 9 ]
				}

			}
, 			{
				"patchline" : 				{
					"destination" : [ "obj-38", 8 ],
					"disabled" : 0,
					"hidden" : 0,
					"midpoints" : [ 351.899994, 246.0, 361.516663, 246.0 ],
					"source" : [ "obj-30", 8 ]
				}

			}
, 			{
				"patchline" : 				{
					"destination" : [ "obj-38", 7 ],
					"disabled" : 0,
					"hidden" : 0,
					"midpoints" : [ 347.100006, 246.0, 353.766663, 246.0 ],
					"source" : [ "obj-30", 7 ]
				}

			}
, 			{
				"patchline" : 				{
					"destination" : [ "obj-38", 6 ],
					"disabled" : 0,
					"hidden" : 0,
					"midpoints" : [ 342.299988, 258.0, 346.016663, 258.0 ],
					"source" : [ "obj-30", 6 ]
				}

			}
, 			{
				"patchline" : 				{
					"destination" : [ "obj-38", 5 ],
					"disabled" : 0,
					"hidden" : 0,
					"midpoints" : [ 337.5, 225.0, 338.266663, 225.0 ],
					"source" : [ "obj-30", 5 ]
				}

			}
, 			{
				"patchline" : 				{
					"destination" : [ "obj-38", 4 ],
					"disabled" : 0,
					"hidden" : 0,
					"midpoints" : [ 332.700012, 225.0, 330.516663, 225.0 ],
					"source" : [ "obj-30", 4 ]
				}

			}
, 			{
				"patchline" : 				{
					"destination" : [ "obj-38", 3 ],
					"disabled" : 0,
					"hidden" : 0,
					"midpoints" : [ 327.899994, 246.0, 322.766663, 246.0 ],
					"source" : [ "obj-30", 3 ]
				}

			}
, 			{
				"patchline" : 				{
					"destination" : [ "obj-38", 2 ],
					"disabled" : 0,
					"hidden" : 0,
					"midpoints" : [ 323.100006, 246.0, 315.016663, 246.0 ],
					"source" : [ "obj-30", 2 ]
				}

			}
, 			{
				"patchline" : 				{
					"destination" : [ "obj-38", 1 ],
					"disabled" : 0,
					"hidden" : 0,
					"midpoints" : [ 318.299988, 246.0, 307.266663, 246.0 ],
					"source" : [ "obj-30", 1 ]
				}

			}
, 			{
				"patchline" : 				{
					"destination" : [ "obj-38", 0 ],
					"disabled" : 0,
					"hidden" : 0,
					"midpoints" : [ 313.5, 246.0, 299.516663, 246.0 ],
					"source" : [ "obj-30", 0 ]
				}

			}
, 			{
				"patchline" : 				{
					"destination" : [ "obj-32", 31 ],
					"disabled" : 0,
					"hidden" : 0,
					"midpoints" : [ 99.995834, 177.0, 97.510429, 177.0 ],
					"source" : [ "obj-31", 15 ]
				}

			}
, 			{
				"patchline" : 				{
					"destination" : [ "obj-32", 30 ],
					"disabled" : 0,
					"hidden" : 0,
					"midpoints" : [ 95.995834, 132.0, 95.687508, 132.0 ],
					"source" : [ "obj-31", 14 ]
				}

			}
, 			{
				"patchline" : 				{
					"destination" : [ "obj-32", 29 ],
					"disabled" : 0,
					"hidden" : 0,
					"midpoints" : [ 91.995834, 177.0, 93.864594, 177.0 ],
					"source" : [ "obj-31", 13 ]
				}

			}
, 			{
				"patchline" : 				{
					"destination" : [ "obj-32", 28 ],
					"disabled" : 0,
					"hidden" : 0,
					"midpoints" : [ 87.995834, 177.0, 92.041672, 177.0 ],
					"source" : [ "obj-31", 12 ]
				}

			}
, 			{
				"patchline" : 				{
					"destination" : [ "obj-32", 27 ],
					"disabled" : 0,
					"hidden" : 0,
					"midpoints" : [ 83.995834, 168.0, 90.218758, 168.0 ],
					"source" : [ "obj-31", 11 ]
				}

			}
, 			{
				"patchline" : 				{
					"destination" : [ "obj-32", 26 ],
					"disabled" : 0,
					"hidden" : 0,
					"midpoints" : [ 79.995834, 168.0, 88.395844, 168.0 ],
					"source" : [ "obj-31", 10 ]
				}

			}
, 			{
				"patchline" : 				{
					"destination" : [ "obj-32", 25 ],
					"disabled" : 0,
					"hidden" : 0,
					"midpoints" : [ 75.995834, 168.0, 86.572922, 168.0 ],
					"source" : [ "obj-31", 9 ]
				}

			}
, 			{
				"patchline" : 				{
					"destination" : [ "obj-32", 24 ],
					"disabled" : 0,
					"hidden" : 0,
					"midpoints" : [ 71.995834, 168.0, 84.750008, 168.0 ],
					"source" : [ "obj-31", 8 ]
				}

			}
, 			{
				"patchline" : 				{
					"destination" : [ "obj-32", 23 ],
					"disabled" : 0,
					"hidden" : 0,
					"midpoints" : [ 67.995834, 168.0, 82.927094, 168.0 ],
					"source" : [ "obj-31", 7 ]
				}

			}
, 			{
				"patchline" : 				{
					"destination" : [ "obj-32", 22 ],
					"disabled" : 0,
					"hidden" : 0,
					"midpoints" : [ 63.995834, 168.0, 81.104172, 168.0 ],
					"source" : [ "obj-31", 6 ]
				}

			}
, 			{
				"patchline" : 				{
					"destination" : [ "obj-32", 21 ],
					"disabled" : 0,
					"hidden" : 0,
					"midpoints" : [ 59.995834, 168.0, 79.281258, 168.0 ],
					"source" : [ "obj-31", 5 ]
				}

			}
, 			{
				"patchline" : 				{
					"destination" : [ "obj-32", 20 ],
					"disabled" : 0,
					"hidden" : 0,
					"midpoints" : [ 55.995834, 168.0, 77.458344, 168.0 ],
					"source" : [ "obj-31", 4 ]
				}

			}
, 			{
				"patchline" : 				{
					"destination" : [ "obj-32", 19 ],
					"disabled" : 0,
					"hidden" : 0,
					"midpoints" : [ 51.995834, 168.0, 75.635422, 168.0 ],
					"source" : [ "obj-31", 3 ]
				}

			}
, 			{
				"patchline" : 				{
					"destination" : [ "obj-32", 18 ],
					"disabled" : 0,
					"hidden" : 0,
					"midpoints" : [ 47.995834, 168.0, 73.812508, 168.0 ],
					"source" : [ "obj-31", 2 ]
				}

			}
, 			{
				"patchline" : 				{
					"destination" : [ "obj-32", 17 ],
					"disabled" : 0,
					"hidden" : 0,
					"midpoints" : [ 43.995834, 168.0, 71.989586, 168.0 ],
					"source" : [ "obj-31", 1 ]
				}

			}
, 			{
				"patchline" : 				{
					"destination" : [ "obj-32", 16 ],
					"disabled" : 0,
					"hidden" : 0,
					"midpoints" : [ 39.995834, 168.0, 70.166672, 168.0 ],
					"source" : [ "obj-31", 0 ]
				}

			}
, 			{
				"patchline" : 				{
					"destination" : [ "obj-30", 31 ],
					"disabled" : 0,
					"hidden" : 0,
					"midpoints" : [ 99.333344, 201.0, 291.0, 201.0, 291.0, 192.0, 389.34375, 192.0 ],
					"source" : [ "obj-32", 15 ]
				}

			}
, 			{
				"patchline" : 				{
					"destination" : [ "obj-30", 30 ],
					"disabled" : 0,
					"hidden" : 0,
					"midpoints" : [ 95.44445, 201.0, 291.0, 201.0, 291.0, 192.0, 386.6875, 192.0 ],
					"source" : [ "obj-32", 14 ]
				}

			}
, 			{
				"patchline" : 				{
					"destination" : [ "obj-30", 29 ],
					"disabled" : 0,
					"hidden" : 0,
					"midpoints" : [ 91.555565, 201.0, 291.0, 201.0, 291.0, 192.0, 384.03125, 192.0 ],
					"source" : [ "obj-32", 13 ]
				}

			}
, 			{
				"patchline" : 				{
					"destination" : [ "obj-30", 28 ],
					"disabled" : 0,
					"hidden" : 0,
					"midpoints" : [ 87.666672, 201.0, 291.0, 201.0, 291.0, 192.0, 381.375, 192.0 ],
					"source" : [ "obj-32", 12 ]
				}

			}
, 			{
				"patchline" : 				{
					"destination" : [ "obj-30", 27 ],
					"disabled" : 0,
					"hidden" : 0,
					"midpoints" : [ 83.777786, 201.0, 291.0, 201.0, 291.0, 192.0, 378.71875, 192.0 ],
					"source" : [ "obj-32", 11 ]
				}

			}
, 			{
				"patchline" : 				{
					"destination" : [ "obj-30", 26 ],
					"disabled" : 0,
					"hidden" : 0,
					"midpoints" : [ 79.888893, 201.0, 291.0, 201.0, 291.0, 192.0, 376.0625, 192.0 ],
					"source" : [ "obj-32", 10 ]
				}

			}
, 			{
				"patchline" : 				{
					"destination" : [ "obj-30", 25 ],
					"disabled" : 0,
					"hidden" : 0,
					"midpoints" : [ 76.000008, 201.0, 291.0, 201.0, 291.0, 192.0, 373.40625, 192.0 ],
					"source" : [ "obj-32", 9 ]
				}

			}
, 			{
				"patchline" : 				{
					"destination" : [ "obj-30", 24 ],
					"disabled" : 0,
					"hidden" : 0,
					"midpoints" : [ 72.111115, 201.0, 291.0, 201.0, 291.0, 192.0, 370.75, 192.0 ],
					"source" : [ "obj-32", 8 ]
				}

			}
, 			{
				"patchline" : 				{
					"destination" : [ "obj-30", 23 ],
					"disabled" : 0,
					"hidden" : 0,
					"midpoints" : [ 68.222229, 213.0, 291.0, 213.0, 291.0, 192.0, 368.09375, 192.0 ],
					"source" : [ "obj-32", 7 ]
				}

			}
, 			{
				"patchline" : 				{
					"destination" : [ "obj-30", 22 ],
					"disabled" : 0,
					"hidden" : 0,
					"midpoints" : [ 64.333336, 213.0, 291.0, 213.0, 291.0, 192.0, 365.4375, 192.0 ],
					"source" : [ "obj-32", 6 ]
				}

			}
, 			{
				"patchline" : 				{
					"destination" : [ "obj-30", 21 ],
					"disabled" : 0,
					"hidden" : 0,
					"midpoints" : [ 60.444447, 213.0, 291.0, 213.0, 291.0, 192.0, 362.78125, 192.0 ],
					"source" : [ "obj-32", 5 ]
				}

			}
, 			{
				"patchline" : 				{
					"destination" : [ "obj-30", 20 ],
					"disabled" : 0,
					"hidden" : 0,
					"midpoints" : [ 56.555557, 213.0, 291.0, 213.0, 291.0, 192.0, 360.125, 192.0 ],
					"source" : [ "obj-32", 4 ]
				}

			}
, 			{
				"patchline" : 				{
					"destination" : [ "obj-30", 19 ],
					"disabled" : 0,
					"hidden" : 0,
					"midpoints" : [ 52.666668, 213.0, 291.0, 213.0, 291.0, 192.0, 357.46875, 192.0 ],
					"source" : [ "obj-32", 3 ]
				}

			}
, 			{
				"patchline" : 				{
					"destination" : [ "obj-30", 18 ],
					"disabled" : 0,
					"hidden" : 0,
					"midpoints" : [ 48.777779, 213.0, 291.0, 213.0, 291.0, 192.0, 354.8125, 192.0 ],
					"source" : [ "obj-32", 2 ]
				}

			}
, 			{
				"patchline" : 				{
					"destination" : [ "obj-30", 17 ],
					"disabled" : 0,
					"hidden" : 0,
					"midpoints" : [ 44.888889, 213.0, 291.0, 213.0, 291.0, 192.0, 352.15625, 192.0 ],
					"source" : [ "obj-32", 1 ]
				}

			}
, 			{
				"patchline" : 				{
					"destination" : [ "obj-30", 16 ],
					"disabled" : 0,
					"hidden" : 0,
					"midpoints" : [ 41.0, 213.0, 291.0, 213.0, 291.0, 192.0, 349.5, 192.0 ],
					"source" : [ "obj-32", 0 ]
				}

			}
, 			{
				"patchline" : 				{
					"destination" : [ "obj-31", 31 ],
					"disabled" : 0,
					"hidden" : 0,
					"midpoints" : [ 395.649994, 354.0, 117.0, 354.0, 117.0, 108.0, 102.812241, 108.0 ],
					"source" : [ "obj-34", 15 ]
				}

			}
, 			{
				"patchline" : 				{
					"destination" : [ "obj-31", 30 ],
					"disabled" : 0,
					"hidden" : 0,
					"midpoints" : [ 391.649994, 354.0, 117.0, 354.0, 117.0, 108.0, 100.624481, 108.0 ],
					"source" : [ "obj-34", 14 ]
				}

			}
, 			{
				"patchline" : 				{
					"destination" : [ "obj-31", 29 ],
					"disabled" : 0,
					"hidden" : 0,
					"midpoints" : [ 387.649994, 354.0, 117.0, 354.0, 117.0, 108.0, 98.436722, 108.0 ],
					"source" : [ "obj-34", 13 ]
				}

			}
, 			{
				"patchline" : 				{
					"destination" : [ "obj-31", 28 ],
					"disabled" : 0,
					"hidden" : 0,
					"midpoints" : [ 383.649994, 354.0, 117.0, 354.0, 117.0, 108.0, 96.248962, 108.0 ],
					"source" : [ "obj-34", 12 ]
				}

			}
, 			{
				"patchline" : 				{
					"destination" : [ "obj-31", 27 ],
					"disabled" : 0,
					"hidden" : 0,
					"midpoints" : [ 379.649994, 354.0, 117.0, 354.0, 117.0, 108.0, 94.061195, 108.0 ],
					"source" : [ "obj-34", 11 ]
				}

			}
, 			{
				"patchline" : 				{
					"destination" : [ "obj-31", 26 ],
					"disabled" : 0,
					"hidden" : 0,
					"midpoints" : [ 375.649994, 354.0, 117.0, 354.0, 117.0, 108.0, 91.873436, 108.0 ],
					"source" : [ "obj-34", 10 ]
				}

			}
, 			{
				"patchline" : 				{
					"destination" : [ "obj-31", 25 ],
					"disabled" : 0,
					"hidden" : 0,
					"midpoints" : [ 371.649994, 354.0, 117.0, 354.0, 117.0, 108.0, 89.685677, 108.0 ],
					"source" : [ "obj-34", 9 ]
				}

			}
, 			{
				"patchline" : 				{
					"destination" : [ "obj-31", 24 ],
					"disabled" : 0,
					"hidden" : 0,
					"midpoints" : [ 367.649994, 354.0, 117.0, 354.0, 117.0, 108.0, 87.497917, 108.0 ],
					"source" : [ "obj-34", 8 ]
				}

			}
, 			{
				"patchline" : 				{
					"destination" : [ "obj-31", 23 ],
					"disabled" : 0,
					"hidden" : 0,
					"midpoints" : [ 363.649994, 354.0, 117.0, 354.0, 117.0, 108.0, 85.310158, 108.0 ],
					"source" : [ "obj-34", 7 ]
				}

			}
, 			{
				"patchline" : 				{
					"destination" : [ "obj-31", 22 ],
					"disabled" : 0,
					"hidden" : 0,
					"midpoints" : [ 359.649994, 354.0, 117.0, 354.0, 117.0, 108.0, 83.122398, 108.0 ],
					"source" : [ "obj-34", 6 ]
				}

			}
, 			{
				"patchline" : 				{
					"destination" : [ "obj-31", 21 ],
					"disabled" : 0,
					"hidden" : 0,
					"midpoints" : [ 355.649994, 354.0, 117.0, 354.0, 117.0, 108.0, 80.934639, 108.0 ],
					"source" : [ "obj-34", 5 ]
				}

			}
, 			{
				"patchline" : 				{
					"destination" : [ "obj-31", 20 ],
					"disabled" : 0,
					"hidden" : 0,
					"midpoints" : [ 351.649994, 345.0, 117.0, 345.0, 117.0, 108.0, 78.746872, 108.0 ],
					"source" : [ "obj-34", 4 ]
				}

			}
, 			{
				"patchline" : 				{
					"destination" : [ "obj-31", 19 ],
					"disabled" : 0,
					"hidden" : 0,
					"midpoints" : [ 347.649994, 345.0, 117.0, 345.0, 117.0, 96.0, 76.559113, 96.0 ],
					"source" : [ "obj-34", 3 ]
				}

			}
, 			{
				"patchline" : 				{
					"destination" : [ "obj-31", 18 ],
					"disabled" : 0,
					"hidden" : 0,
					"midpoints" : [ 343.649994, 345.0, 117.0, 345.0, 117.0, 96.0, 74.371353, 96.0 ],
					"source" : [ "obj-34", 2 ]
				}

			}
, 			{
				"patchline" : 				{
					"destination" : [ "obj-31", 17 ],
					"disabled" : 0,
					"hidden" : 0,
					"midpoints" : [ 339.649994, 345.0, 117.0, 345.0, 117.0, 96.0, 72.183594, 96.0 ],
					"source" : [ "obj-34", 1 ]
				}

			}
, 			{
				"patchline" : 				{
					"destination" : [ "obj-31", 16 ],
					"disabled" : 0,
					"hidden" : 0,
					"midpoints" : [ 335.649994, 345.0, 117.0, 345.0, 117.0, 96.0, 69.995834, 96.0 ],
					"source" : [ "obj-34", 0 ]
				}

			}
, 			{
				"patchline" : 				{
					"destination" : [ "obj-35", 15 ],
					"disabled" : 0,
					"hidden" : 0,
					"midpoints" : [ 395.649994, 399.0, 117.25, 399.0 ],
					"source" : [ "obj-34", 15 ]
				}

			}
, 			{
				"patchline" : 				{
					"destination" : [ "obj-35", 14 ],
					"disabled" : 0,
					"hidden" : 0,
					"midpoints" : [ 391.649994, 390.0, 114.283333, 390.0 ],
					"source" : [ "obj-34", 14 ]
				}

			}
, 			{
				"patchline" : 				{
					"destination" : [ "obj-35", 13 ],
					"disabled" : 0,
					"hidden" : 0,
					"midpoints" : [ 387.649994, 390.0, 111.316666, 390.0 ],
					"source" : [ "obj-34", 13 ]
				}

			}
, 			{
				"patchline" : 				{
					"destination" : [ "obj-35", 12 ],
					"disabled" : 0,
					"hidden" : 0,
					"midpoints" : [ 383.649994, 390.0, 108.349998, 390.0 ],
					"source" : [ "obj-34", 12 ]
				}

			}
, 			{
				"patchline" : 				{
					"destination" : [ "obj-35", 11 ],
					"disabled" : 0,
					"hidden" : 0,
					"midpoints" : [ 379.649994, 390.0, 105.383331, 390.0 ],
					"source" : [ "obj-34", 11 ]
				}

			}
, 			{
				"patchline" : 				{
					"destination" : [ "obj-35", 10 ],
					"disabled" : 0,
					"hidden" : 0,
					"midpoints" : [ 375.649994, 390.0, 102.416664, 390.0 ],
					"source" : [ "obj-34", 10 ]
				}

			}
, 			{
				"patchline" : 				{
					"destination" : [ "obj-35", 9 ],
					"disabled" : 0,
					"hidden" : 0,
					"midpoints" : [ 371.649994, 390.0, 99.449997, 390.0 ],
					"source" : [ "obj-34", 9 ]
				}

			}
, 			{
				"patchline" : 				{
					"destination" : [ "obj-35", 8 ],
					"disabled" : 0,
					"hidden" : 0,
					"midpoints" : [ 367.649994, 390.0, 96.48333, 390.0 ],
					"source" : [ "obj-34", 8 ]
				}

			}
, 			{
				"patchline" : 				{
					"destination" : [ "obj-35", 7 ],
					"disabled" : 0,
					"hidden" : 0,
					"midpoints" : [ 363.649994, 390.0, 93.51667, 390.0 ],
					"source" : [ "obj-34", 7 ]
				}

			}
, 			{
				"patchline" : 				{
					"destination" : [ "obj-35", 6 ],
					"disabled" : 0,
					"hidden" : 0,
					"midpoints" : [ 359.649994, 390.0, 90.550003, 390.0 ],
					"source" : [ "obj-34", 6 ]
				}

			}
, 			{
				"patchline" : 				{
					"destination" : [ "obj-35", 5 ],
					"disabled" : 0,
					"hidden" : 0,
					"midpoints" : [ 355.649994, 390.0, 87.583336, 390.0 ],
					"source" : [ "obj-34", 5 ]
				}

			}
, 			{
				"patchline" : 				{
					"destination" : [ "obj-35", 4 ],
					"disabled" : 0,
					"hidden" : 0,
					"midpoints" : [ 351.649994, 390.0, 84.616669, 390.0 ],
					"source" : [ "obj-34", 4 ]
				}

			}
, 			{
				"patchline" : 				{
					"destination" : [ "obj-35", 3 ],
					"disabled" : 0,
					"hidden" : 0,
					"midpoints" : [ 347.649994, 390.0, 81.650002, 390.0 ],
					"source" : [ "obj-34", 3 ]
				}

			}
, 			{
				"patchline" : 				{
					"destination" : [ "obj-35", 2 ],
					"disabled" : 0,
					"hidden" : 0,
					"midpoints" : [ 343.649994, 390.0, 78.683334, 390.0 ],
					"source" : [ "obj-34", 2 ]
				}

			}
, 			{
				"patchline" : 				{
					"destination" : [ "obj-35", 1 ],
					"disabled" : 0,
					"hidden" : 0,
					"midpoints" : [ 339.649994, 390.0, 75.716667, 390.0 ],
					"source" : [ "obj-34", 1 ]
				}

			}
, 			{
				"patchline" : 				{
					"destination" : [ "obj-35", 0 ],
					"disabled" : 0,
					"hidden" : 0,
					"midpoints" : [ 335.649994, 390.0, 72.75, 390.0 ],
					"source" : [ "obj-34", 0 ]
				}

			}
, 			{
				"patchline" : 				{
					"destination" : [ "obj-39", 0 ],
					"disabled" : 0,
					"hidden" : 0,
					"midpoints" : [ 335.649994, 453.0, 287.5, 453.0 ],
					"source" : [ "obj-34", 0 ]
				}

			}
, 			{
				"patchline" : 				{
					"destination" : [ "obj-40", 0 ],
					"disabled" : 0,
					"hidden" : 0,
					"midpoints" : [ 339.649994, 453.0, 303.0, 453.0, 303.0, 477.0, 302.5, 477.0 ],
					"source" : [ "obj-34", 1 ]
				}

			}
, 			{
				"patchline" : 				{
					"destination" : [ "obj-41", 0 ],
					"disabled" : 0,
					"hidden" : 0,
					"midpoints" : [ 343.649994, 453.0, 318.0, 453.0, 318.0, 492.0, 317.5, 492.0 ],
					"source" : [ "obj-34", 2 ]
				}

			}
, 			{
				"patchline" : 				{
					"destination" : [ "obj-42", 0 ],
					"disabled" : 0,
					"hidden" : 0,
					"midpoints" : [ 347.649994, 453.0, 333.0, 453.0, 333.0, 507.0, 332.5, 507.0 ],
					"source" : [ "obj-34", 3 ]
				}

			}
, 			{
				"patchline" : 				{
					"destination" : [ "obj-43", 0 ],
					"disabled" : 0,
					"hidden" : 0,
					"midpoints" : [ 363.649994, 453.0, 390.0, 453.0, 390.0, 492.0, 396.0, 492.0, 396.0, 507.0, 394.5, 507.0 ],
					"source" : [ "obj-34", 7 ]
				}

			}
, 			{
				"patchline" : 				{
					"destination" : [ "obj-44", 0 ],
					"disabled" : 0,
					"hidden" : 0,
					"midpoints" : [ 359.649994, 453.0, 381.0, 453.0, 381.0, 492.0, 379.5, 492.0 ],
					"source" : [ "obj-34", 6 ]
				}

			}
, 			{
				"patchline" : 				{
					"destination" : [ "obj-45", 0 ],
					"disabled" : 0,
					"hidden" : 0,
					"midpoints" : [ 355.649994, 453.0, 366.0, 453.0, 366.0, 477.0, 364.5, 477.0 ],
					"source" : [ "obj-34", 5 ]
				}

			}
, 			{
				"patchline" : 				{
					"destination" : [ "obj-46", 0 ],
					"disabled" : 0,
					"hidden" : 0,
					"midpoints" : [ 351.649994, 462.0, 349.5, 462.0 ],
					"source" : [ "obj-34", 4 ]
				}

			}
, 			{
				"patchline" : 				{
					"destination" : [ "obj-47", 0 ],
					"disabled" : 0,
					"hidden" : 0,
					"midpoints" : [ 395.649994, 453.0, 522.0, 453.0, 522.0, 507.0, 519.833374, 507.0 ],
					"source" : [ "obj-34", 15 ]
				}

			}
, 			{
				"patchline" : 				{
					"destination" : [ "obj-48", 0 ],
					"disabled" : 0,
					"hidden" : 0,
					"midpoints" : [ 391.649994, 453.0, 507.0, 453.0, 507.0, 492.0, 504.833344, 492.0 ],
					"source" : [ "obj-34", 14 ]
				}

			}
, 			{
				"patchline" : 				{
					"destination" : [ "obj-49", 0 ],
					"disabled" : 0,
					"hidden" : 0,
					"midpoints" : [ 387.649994, 453.0, 492.0, 453.0, 492.0, 477.0, 489.833344, 477.0 ],
					"source" : [ "obj-34", 13 ]
				}

			}
, 			{
				"patchline" : 				{
					"destination" : [ "obj-50", 0 ],
					"disabled" : 0,
					"hidden" : 0,
					"midpoints" : [ 383.649994, 453.0, 474.833344, 453.0 ],
					"source" : [ "obj-34", 12 ]
				}

			}
, 			{
				"patchline" : 				{
					"destination" : [ "obj-51", 0 ],
					"disabled" : 0,
					"hidden" : 0,
					"midpoints" : [ 379.649994, 453.0, 450.0, 453.0, 450.0, 492.0, 459.0, 492.0, 459.0, 507.0, 457.833344, 507.0 ],
					"source" : [ "obj-34", 11 ]
				}

			}
, 			{
				"patchline" : 				{
					"destination" : [ "obj-52", 0 ],
					"disabled" : 0,
					"hidden" : 0,
					"midpoints" : [ 375.649994, 453.0, 444.0, 453.0, 444.0, 492.0, 442.833344, 492.0 ],
					"source" : [ "obj-34", 10 ]
				}

			}
, 			{
				"patchline" : 				{
					"destination" : [ "obj-53", 0 ],
					"disabled" : 0,
					"hidden" : 0,
					"midpoints" : [ 371.649994, 453.0, 429.0, 453.0, 429.0, 477.0, 427.833344, 477.0 ],
					"source" : [ "obj-34", 9 ]
				}

			}
, 			{
				"patchline" : 				{
					"destination" : [ "obj-54", 0 ],
					"disabled" : 0,
					"hidden" : 0,
					"midpoints" : [ 367.649994, 453.0, 412.833344, 453.0 ],
					"source" : [ "obj-34", 8 ]
				}

			}
, 			{
				"patchline" : 				{
					"destination" : [ "obj-31", 15 ],
					"disabled" : 0,
					"hidden" : 0,
					"midpoints" : [ 117.25, 426.0, 129.0, 426.0, 129.0, 96.0, 67.808075, 96.0 ],
					"source" : [ "obj-35", 15 ]
				}

			}
, 			{
				"patchline" : 				{
					"destination" : [ "obj-31", 14 ],
					"disabled" : 0,
					"hidden" : 0,
					"midpoints" : [ 114.283333, 426.0, 129.0, 426.0, 129.0, 96.0, 65.620316, 96.0 ],
					"source" : [ "obj-35", 14 ]
				}

			}
, 			{
				"patchline" : 				{
					"destination" : [ "obj-31", 13 ],
					"disabled" : 0,
					"hidden" : 0,
					"midpoints" : [ 111.316666, 426.0, 129.0, 426.0, 129.0, 96.0, 63.432552, 96.0 ],
					"source" : [ "obj-35", 13 ]
				}

			}
, 			{
				"patchline" : 				{
					"destination" : [ "obj-31", 12 ],
					"disabled" : 0,
					"hidden" : 0,
					"midpoints" : [ 108.349998, 426.0, 129.0, 426.0, 129.0, 96.0, 61.244793, 96.0 ],
					"source" : [ "obj-35", 12 ]
				}

			}
, 			{
				"patchline" : 				{
					"destination" : [ "obj-31", 11 ],
					"disabled" : 0,
					"hidden" : 0,
					"midpoints" : [ 105.383331, 426.0, 129.0, 426.0, 129.0, 96.0, 59.057034, 96.0 ],
					"source" : [ "obj-35", 11 ]
				}

			}
, 			{
				"patchline" : 				{
					"destination" : [ "obj-31", 10 ],
					"disabled" : 0,
					"hidden" : 0,
					"midpoints" : [ 102.416664, 426.0, 129.0, 426.0, 129.0, 96.0, 56.86927, 96.0 ],
					"source" : [ "obj-35", 10 ]
				}

			}
, 			{
				"patchline" : 				{
					"destination" : [ "obj-31", 9 ],
					"disabled" : 0,
					"hidden" : 0,
					"midpoints" : [ 99.449997, 426.0, 129.0, 426.0, 129.0, 96.0, 54.681511, 96.0 ],
					"source" : [ "obj-35", 9 ]
				}

			}
, 			{
				"patchline" : 				{
					"destination" : [ "obj-31", 8 ],
					"disabled" : 0,
					"hidden" : 0,
					"midpoints" : [ 96.48333, 435.0, 18.0, 435.0, 18.0, 108.0, 52.493752, 108.0 ],
					"source" : [ "obj-35", 8 ]
				}

			}
, 			{
				"patchline" : 				{
					"destination" : [ "obj-31", 7 ],
					"disabled" : 0,
					"hidden" : 0,
					"midpoints" : [ 93.51667, 435.0, 18.0, 435.0, 18.0, 108.0, 50.305992, 108.0 ],
					"source" : [ "obj-35", 7 ]
				}

			}
, 			{
				"patchline" : 				{
					"destination" : [ "obj-31", 6 ],
					"disabled" : 0,
					"hidden" : 0,
					"midpoints" : [ 90.550003, 435.0, 18.0, 435.0, 18.0, 108.0, 48.118233, 108.0 ],
					"source" : [ "obj-35", 6 ]
				}

			}
, 			{
				"patchline" : 				{
					"destination" : [ "obj-31", 5 ],
					"disabled" : 0,
					"hidden" : 0,
					"midpoints" : [ 87.583336, 426.0, 18.0, 426.0, 18.0, 108.0, 45.93047, 108.0 ],
					"source" : [ "obj-35", 5 ]
				}

			}
, 			{
				"patchline" : 				{
					"destination" : [ "obj-31", 4 ],
					"disabled" : 0,
					"hidden" : 0,
					"midpoints" : [ 84.616669, 426.0, 18.0, 426.0, 18.0, 108.0, 43.74271, 108.0 ],
					"source" : [ "obj-35", 4 ]
				}

			}
, 			{
				"patchline" : 				{
					"destination" : [ "obj-31", 3 ],
					"disabled" : 0,
					"hidden" : 0,
					"midpoints" : [ 81.650002, 426.0, 18.0, 426.0, 18.0, 108.0, 41.554951, 108.0 ],
					"source" : [ "obj-35", 3 ]
				}

			}
, 			{
				"patchline" : 				{
					"destination" : [ "obj-31", 2 ],
					"disabled" : 0,
					"hidden" : 0,
					"midpoints" : [ 78.683334, 426.0, 18.0, 426.0, 18.0, 108.0, 39.367188, 108.0 ],
					"source" : [ "obj-35", 2 ]
				}

			}
, 			{
				"patchline" : 				{
					"destination" : [ "obj-31", 1 ],
					"disabled" : 0,
					"hidden" : 0,
					"midpoints" : [ 75.716667, 426.0, 18.0, 426.0, 18.0, 108.0, 37.179428, 108.0 ],
					"source" : [ "obj-35", 1 ]
				}

			}
, 			{
				"patchline" : 				{
					"destination" : [ "obj-31", 0 ],
					"disabled" : 0,
					"hidden" : 0,
					"midpoints" : [ 72.75, 426.0, 18.0, 426.0, 18.0, 108.0, 34.991669, 108.0 ],
					"source" : [ "obj-35", 0 ]
				}

			}
, 			{
				"patchline" : 				{
					"destination" : [ "obj-34", 16 ],
					"disabled" : 0,
					"hidden" : 0,
					"midpoints" : [ 504.833344, 309.0, 395.649994, 309.0 ],
					"source" : [ "obj-36", 0 ]
				}

			}
, 			{
				"patchline" : 				{
					"destination" : [ "obj-30", 15 ],
					"disabled" : 0,
					"hidden" : 0,
					"midpoints" : [ 412.833344, 192.0, 346.84375, 192.0 ],
					"source" : [ "obj-37", 0 ]
				}

			}
, 			{
				"patchline" : 				{
					"destination" : [ "obj-30", 14 ],
					"disabled" : 0,
					"hidden" : 0,
					"midpoints" : [ 412.833344, 192.0, 344.1875, 192.0 ],
					"source" : [ "obj-37", 0 ]
				}

			}
, 			{
				"patchline" : 				{
					"destination" : [ "obj-30", 13 ],
					"disabled" : 0,
					"hidden" : 0,
					"midpoints" : [ 412.833344, 192.0, 341.53125, 192.0 ],
					"source" : [ "obj-37", 0 ]
				}

			}
, 			{
				"patchline" : 				{
					"destination" : [ "obj-30", 12 ],
					"disabled" : 0,
					"hidden" : 0,
					"midpoints" : [ 412.833344, 192.0, 338.875, 192.0 ],
					"source" : [ "obj-37", 0 ]
				}

			}
, 			{
				"patchline" : 				{
					"destination" : [ "obj-30", 11 ],
					"disabled" : 0,
					"hidden" : 0,
					"midpoints" : [ 412.833344, 192.0, 336.21875, 192.0 ],
					"source" : [ "obj-37", 0 ]
				}

			}
, 			{
				"patchline" : 				{
					"destination" : [ "obj-30", 10 ],
					"disabled" : 0,
					"hidden" : 0,
					"midpoints" : [ 412.833344, 192.0, 333.5625, 192.0 ],
					"source" : [ "obj-37", 0 ]
				}

			}
, 			{
				"patchline" : 				{
					"destination" : [ "obj-30", 9 ],
					"disabled" : 0,
					"hidden" : 0,
					"midpoints" : [ 412.833344, 192.0, 330.90625, 192.0 ],
					"source" : [ "obj-37", 0 ]
				}

			}
, 			{
				"patchline" : 				{
					"destination" : [ "obj-30", 8 ],
					"disabled" : 0,
					"hidden" : 0,
					"midpoints" : [ 412.833344, 192.0, 328.25, 192.0 ],
					"source" : [ "obj-37", 0 ]
				}

			}
, 			{
				"patchline" : 				{
					"destination" : [ "obj-30", 7 ],
					"disabled" : 0,
					"hidden" : 0,
					"midpoints" : [ 412.833344, 192.0, 325.59375, 192.0 ],
					"source" : [ "obj-37", 0 ]
				}

			}
, 			{
				"patchline" : 				{
					"destination" : [ "obj-30", 6 ],
					"disabled" : 0,
					"hidden" : 0,
					"midpoints" : [ 412.833344, 192.0, 322.9375, 192.0 ],
					"source" : [ "obj-37", 0 ]
				}

			}
, 			{
				"patchline" : 				{
					"destination" : [ "obj-30", 5 ],
					"disabled" : 0,
					"hidden" : 0,
					"midpoints" : [ 412.833344, 192.0, 320.28125, 192.0 ],
					"source" : [ "obj-37", 0 ]
				}

			}
, 			{
				"patchline" : 				{
					"destination" : [ "obj-30", 4 ],
					"disabled" : 0,
					"hidden" : 0,
					"midpoints" : [ 412.833344, 192.0, 317.625, 192.0 ],
					"source" : [ "obj-37", 0 ]
				}

			}
, 			{
				"patchline" : 				{
					"destination" : [ "obj-30", 3 ],
					"disabled" : 0,
					"hidden" : 0,
					"midpoints" : [ 412.833344, 192.0, 314.96875, 192.0 ],
					"source" : [ "obj-37", 0 ]
				}

			}
, 			{
				"patchline" : 				{
					"destination" : [ "obj-30", 2 ],
					"disabled" : 0,
					"hidden" : 0,
					"midpoints" : [ 412.833344, 192.0, 312.3125, 192.0 ],
					"source" : [ "obj-37", 0 ]
				}

			}
, 			{
				"patchline" : 				{
					"destination" : [ "obj-30", 1 ],
					"disabled" : 0,
					"hidden" : 0,
					"midpoints" : [ 412.833344, 192.0, 309.65625, 192.0 ],
					"source" : [ "obj-37", 0 ]
				}

			}
, 			{
				"patchline" : 				{
					"destination" : [ "obj-30", 0 ],
					"disabled" : 0,
					"hidden" : 0,
					"midpoints" : [ 412.833344, 192.0, 307.0, 192.0 ],
					"source" : [ "obj-37", 0 ]
				}

			}
, 			{
				"patchline" : 				{
					"destination" : [ "obj-34", 15 ],
					"disabled" : 0,
					"hidden" : 0,
					"midpoints" : [ 423.516663, 309.0, 391.899994, 309.0 ],
					"source" : [ "obj-38", 15 ]
				}

			}
, 			{
				"patchline" : 				{
					"destination" : [ "obj-34", 14 ],
					"disabled" : 0,
					"hidden" : 0,
					"midpoints" : [ 415.25, 309.0, 388.149994, 309.0 ],
					"source" : [ "obj-38", 14 ]
				}

			}
, 			{
				"patchline" : 				{
					"destination" : [ "obj-34", 13 ],
					"disabled" : 0,
					"hidden" : 0,
					"midpoints" : [ 406.983337, 309.0, 384.399994, 309.0 ],
					"source" : [ "obj-38", 13 ]
				}

			}
, 			{
				"patchline" : 				{
					"destination" : [ "obj-34", 12 ],
					"disabled" : 0,
					"hidden" : 0,
					"midpoints" : [ 398.716675, 309.0, 380.649994, 309.0 ],
					"source" : [ "obj-38", 12 ]
				}

			}
, 			{
				"patchline" : 				{
					"destination" : [ "obj-34", 11 ],
					"disabled" : 0,
					"hidden" : 0,
					"midpoints" : [ 390.449982, 309.0, 376.899994, 309.0 ],
					"source" : [ "obj-38", 11 ]
				}

			}
, 			{
				"patchline" : 				{
					"destination" : [ "obj-34", 10 ],
					"disabled" : 0,
					"hidden" : 0,
					"midpoints" : [ 382.183319, 309.0, 373.149994, 309.0 ],
					"source" : [ "obj-38", 10 ]
				}

			}
, 			{
				"patchline" : 				{
					"destination" : [ "obj-34", 9 ],
					"disabled" : 0,
					"hidden" : 0,
					"midpoints" : [ 373.916656, 318.0, 369.399994, 318.0 ],
					"source" : [ "obj-38", 9 ]
				}

			}
, 			{
				"patchline" : 				{
					"destination" : [ "obj-34", 8 ],
					"disabled" : 0,
					"hidden" : 0,
					"midpoints" : [ 365.649994, 294.0, 365.649994, 294.0 ],
					"source" : [ "obj-38", 8 ]
				}

			}
, 			{
				"patchline" : 				{
					"destination" : [ "obj-34", 7 ],
					"disabled" : 0,
					"hidden" : 0,
					"midpoints" : [ 357.383331, 318.0, 361.899994, 318.0 ],
					"source" : [ "obj-38", 7 ]
				}

			}
, 			{
				"patchline" : 				{
					"destination" : [ "obj-34", 6 ],
					"disabled" : 0,
					"hidden" : 0,
					"midpoints" : [ 349.116669, 309.0, 358.149994, 309.0 ],
					"source" : [ "obj-38", 6 ]
				}

			}
, 			{
				"patchline" : 				{
					"destination" : [ "obj-34", 5 ],
					"disabled" : 0,
					"hidden" : 0,
					"midpoints" : [ 340.850006, 309.0, 354.399994, 309.0 ],
					"source" : [ "obj-38", 5 ]
				}

			}
, 			{
				"patchline" : 				{
					"destination" : [ "obj-34", 4 ],
					"disabled" : 0,
					"hidden" : 0,
					"midpoints" : [ 332.583344, 309.0, 350.649994, 309.0 ],
					"source" : [ "obj-38", 4 ]
				}

			}
, 			{
				"patchline" : 				{
					"destination" : [ "obj-34", 3 ],
					"disabled" : 0,
					"hidden" : 0,
					"midpoints" : [ 324.31665, 309.0, 346.899994, 309.0 ],
					"source" : [ "obj-38", 3 ]
				}

			}
, 			{
				"patchline" : 				{
					"destination" : [ "obj-34", 2 ],
					"disabled" : 0,
					"hidden" : 0,
					"midpoints" : [ 316.049988, 309.0, 343.149994, 309.0 ],
					"source" : [ "obj-38", 2 ]
				}

			}
, 			{
				"patchline" : 				{
					"destination" : [ "obj-34", 1 ],
					"disabled" : 0,
					"hidden" : 0,
					"midpoints" : [ 307.783325, 309.0, 339.399994, 309.0 ],
					"source" : [ "obj-38", 1 ]
				}

			}
, 			{
				"patchline" : 				{
					"destination" : [ "obj-34", 0 ],
					"disabled" : 0,
					"hidden" : 0,
					"midpoints" : [ 299.516663, 309.0, 335.649994, 309.0 ],
					"source" : [ "obj-38", 0 ]
				}

			}
, 			{
				"patchline" : 				{
					"destination" : [ "obj-2", 0 ],
					"disabled" : 0,
					"hidden" : 0,
					"midpoints" : [ 523.5, 57.0, 523.5, 57.0 ],
					"source" : [ "obj-4", 0 ]
				}

			}
, 			{
				"patchline" : 				{
					"destination" : [ "obj-3", 0 ],
					"disabled" : 0,
					"hidden" : 0,
					"midpoints" : [ 584.5, 33.0, 586.5, 33.0 ],
					"source" : [ "obj-5", 0 ]
				}

			}
, 			{
				"patchline" : 				{
					"destination" : [ "obj-4", 0 ],
					"disabled" : 0,
					"hidden" : 0,
					"midpoints" : [ 584.5, 27.0, 558.0, 27.0, 558.0, 33.0, 523.5, 33.0 ],
					"source" : [ "obj-5", 0 ]
				}

			}
 ],
		"dependency_cache" : [ 			{
				"name" : "muxer16.maxpat",
				"bootpath" : "/Users/angelman/Desktop/com_sim",
				"patcherrelativepath" : ".",
				"type" : "JSON",
				"implicit" : 1
			}
, 			{
				"name" : "muxer.maxpat",
				"bootpath" : "/Users/angelman/Desktop/com_sim",
				"patcherrelativepath" : ".",
				"type" : "JSON",
				"implicit" : 1
			}
, 			{
				"name" : "and.maxpat",
				"bootpath" : "/Users/angelman/Desktop/com_sim",
				"patcherrelativepath" : ".",
				"type" : "JSON",
				"implicit" : 1
			}
, 			{
				"name" : "or.maxpat",
				"bootpath" : "/Users/angelman/Desktop/com_sim",
				"patcherrelativepath" : ".",
				"type" : "JSON",
				"implicit" : 1
			}
, 			{
				"name" : "not.maxpat",
				"bootpath" : "/Users/angelman/Desktop/com_sim",
				"patcherrelativepath" : ".",
				"type" : "JSON",
				"implicit" : 1
			}
, 			{
				"name" : "register.maxpat",
				"bootpath" : "/Users/angelman/Desktop/com_sim",
				"patcherrelativepath" : ".",
				"type" : "JSON",
				"implicit" : 1
			}
, 			{
				"name" : "bit.maxpat",
				"bootpath" : "/Users/angelman/Desktop/com_sim",
				"patcherrelativepath" : ".",
				"type" : "JSON",
				"implicit" : 1
			}
, 			{
				"name" : "inc16.maxpat",
				"bootpath" : "/Users/angelman/Desktop/com_sim",
				"patcherrelativepath" : ".",
				"type" : "JSON",
				"implicit" : 1
			}
, 			{
				"name" : "add16.maxpat",
				"bootpath" : "/Users/angelman/Desktop/com_sim",
				"patcherrelativepath" : ".",
				"type" : "JSON",
				"implicit" : 1
			}
, 			{
				"name" : "halfadder.maxpat",
				"bootpath" : "/Users/angelman/Desktop/com_sim",
				"patcherrelativepath" : ".",
				"type" : "JSON",
				"implicit" : 1
			}
, 			{
				"name" : "xor.maxpat",
				"bootpath" : "/Users/angelman/Desktop/com_sim",
				"patcherrelativepath" : ".",
				"type" : "JSON",
				"implicit" : 1
			}
, 			{
				"name" : "fulladder.maxpat",
				"bootpath" : "/Users/angelman/Desktop/com_sim",
				"patcherrelativepath" : ".",
				"type" : "JSON",
				"implicit" : 1
			}
 ]
	}

}
