{
	"patcher" : 	{
		"fileversion" : 1,
		"appversion" : 		{
			"major" : 6,
			"minor" : 1,
			"revision" : 10,
			"architecture" : "x86"
		}
,
		"rect" : [ 179.0, 178.0, 924.0, 480.0 ],
		"bglocked" : 0,
		"openinpresentation" : 0,
		"default_fontsize" : 12.0,
		"default_fontface" : 0,
		"default_fontname" : "Arial",
		"gridonopen" : 0,
		"gridsize" : [ 15.0, 15.0 ],
		"gridsnaponopen" : 0,
		"statusbarvisible" : 2,
		"toolbarvisible" : 1,
		"boxanimatetime" : 200,
		"imprint" : 0,
		"enablehscroll" : 1,
		"enablevscroll" : 1,
		"devicewidth" : 0.0,
		"description" : "",
		"digest" : "",
		"tags" : "",
		"boxes" : [ 			{
				"box" : 				{
					"fontname" : "Arial",
					"fontsize" : 12.0,
					"id" : "obj-73",
					"maxclass" : "newobj",
					"numinlets" : 17,
					"numoutlets" : 16,
					"outlettype" : [ "int", "int", "int", "int", "int", "int", "int", "int", "int", "int", "int", "int", "int", "int", "int", "int" ],
					"patching_rect" : [ 456.25, 114.0, 53.875, 20.0 ],
					"text" : "register"
				}

			}
, 			{
				"box" : 				{
					"fontname" : "Arial",
					"fontsize" : 12.0,
					"id" : "obj-72",
					"maxclass" : "newobj",
					"numinlets" : 17,
					"numoutlets" : 16,
					"outlettype" : [ "int", "int", "int", "int", "int", "int", "int", "int", "int", "int", "int", "int", "int", "int", "int", "int" ],
					"patching_rect" : [ 395.0, 114.0, 58.0, 20.0 ],
					"text" : "register"
				}

			}
, 			{
				"box" : 				{
					"fontname" : "Arial",
					"fontsize" : 12.0,
					"id" : "obj-71",
					"maxclass" : "newobj",
					"numinlets" : 17,
					"numoutlets" : 16,
					"outlettype" : [ "int", "int", "int", "int", "int", "int", "int", "int", "int", "int", "int", "int", "int", "int", "int", "int" ],
					"patching_rect" : [ 340.75, 114.0, 53.875, 20.0 ],
					"text" : "register"
				}

			}
, 			{
				"box" : 				{
					"fontname" : "Arial",
					"fontsize" : 12.0,
					"id" : "obj-70",
					"maxclass" : "newobj",
					"numinlets" : 17,
					"numoutlets" : 16,
					"outlettype" : [ "int", "int", "int", "int", "int", "int", "int", "int", "int", "int", "int", "int", "int", "int", "int", "int" ],
					"patching_rect" : [ 283.0, 114.0, 53.875, 20.0 ],
					"text" : "register"
				}

			}
, 			{
				"box" : 				{
					"fontname" : "Arial",
					"fontsize" : 12.0,
					"id" : "obj-69",
					"maxclass" : "newobj",
					"numinlets" : 17,
					"numoutlets" : 16,
					"outlettype" : [ "int", "int", "int", "int", "int", "int", "int", "int", "int", "int", "int", "int", "int", "int", "int", "int" ],
					"patching_rect" : [ 223.0, 114.0, 55.0, 20.0 ],
					"text" : "register"
				}

			}
, 			{
				"box" : 				{
					"fontname" : "Arial",
					"fontsize" : 12.0,
					"id" : "obj-68",
					"maxclass" : "newobj",
					"numinlets" : 17,
					"numoutlets" : 16,
					"outlettype" : [ "int", "int", "int", "int", "int", "int", "int", "int", "int", "int", "int", "int", "int", "int", "int", "int" ],
					"patching_rect" : [ 161.1875, 114.0, 57.8125, 20.0 ],
					"text" : "register"
				}

			}
, 			{
				"box" : 				{
					"comment" : "",
					"id" : "obj-60",
					"maxclass" : "outlet",
					"numinlets" : 1,
					"numoutlets" : 0,
					"patching_rect" : [ 499.5625, 408.0, 25.0, 25.0 ]
				}

			}
, 			{
				"box" : 				{
					"comment" : "",
					"id" : "obj-61",
					"maxclass" : "outlet",
					"numinlets" : 1,
					"numoutlets" : 0,
					"patching_rect" : [ 485.125, 393.0, 25.0, 25.0 ]
				}

			}
, 			{
				"box" : 				{
					"comment" : "",
					"id" : "obj-62",
					"maxclass" : "outlet",
					"numinlets" : 1,
					"numoutlets" : 0,
					"patching_rect" : [ 470.6875, 378.0, 25.0, 25.0 ]
				}

			}
, 			{
				"box" : 				{
					"comment" : "",
					"id" : "obj-63",
					"maxclass" : "outlet",
					"numinlets" : 1,
					"numoutlets" : 0,
					"patching_rect" : [ 456.25, 363.0, 25.0, 25.0 ]
				}

			}
, 			{
				"box" : 				{
					"comment" : "",
					"id" : "obj-64",
					"maxclass" : "outlet",
					"numinlets" : 1,
					"numoutlets" : 0,
					"patching_rect" : [ 441.8125, 408.0, 25.0, 25.0 ]
				}

			}
, 			{
				"box" : 				{
					"comment" : "",
					"id" : "obj-65",
					"maxclass" : "outlet",
					"numinlets" : 1,
					"numoutlets" : 0,
					"patching_rect" : [ 427.375, 393.0, 25.0, 25.0 ]
				}

			}
, 			{
				"box" : 				{
					"comment" : "",
					"id" : "obj-66",
					"maxclass" : "outlet",
					"numinlets" : 1,
					"numoutlets" : 0,
					"patching_rect" : [ 412.9375, 378.0, 25.0, 25.0 ]
				}

			}
, 			{
				"box" : 				{
					"comment" : "",
					"id" : "obj-67",
					"maxclass" : "outlet",
					"numinlets" : 1,
					"numoutlets" : 0,
					"patching_rect" : [ 398.5, 363.0, 25.0, 25.0 ]
				}

			}
, 			{
				"box" : 				{
					"comment" : "",
					"id" : "obj-56",
					"maxclass" : "outlet",
					"numinlets" : 1,
					"numoutlets" : 0,
					"patching_rect" : [ 384.0625, 408.0, 25.0, 25.0 ]
				}

			}
, 			{
				"box" : 				{
					"comment" : "",
					"id" : "obj-57",
					"maxclass" : "outlet",
					"numinlets" : 1,
					"numoutlets" : 0,
					"patching_rect" : [ 369.625, 393.0, 25.0, 25.0 ]
				}

			}
, 			{
				"box" : 				{
					"comment" : "",
					"id" : "obj-58",
					"maxclass" : "outlet",
					"numinlets" : 1,
					"numoutlets" : 0,
					"patching_rect" : [ 355.1875, 378.0, 25.0, 25.0 ]
				}

			}
, 			{
				"box" : 				{
					"comment" : "",
					"id" : "obj-59",
					"maxclass" : "outlet",
					"numinlets" : 1,
					"numoutlets" : 0,
					"patching_rect" : [ 340.75, 363.0, 25.0, 25.0 ]
				}

			}
, 			{
				"box" : 				{
					"comment" : "",
					"id" : "obj-55",
					"maxclass" : "outlet",
					"numinlets" : 1,
					"numoutlets" : 0,
					"patching_rect" : [ 326.3125, 408.0, 25.0, 25.0 ]
				}

			}
, 			{
				"box" : 				{
					"comment" : "",
					"id" : "obj-54",
					"maxclass" : "outlet",
					"numinlets" : 1,
					"numoutlets" : 0,
					"patching_rect" : [ 311.875, 393.0, 25.0, 25.0 ]
				}

			}
, 			{
				"box" : 				{
					"comment" : "",
					"id" : "obj-53",
					"maxclass" : "outlet",
					"numinlets" : 1,
					"numoutlets" : 0,
					"patching_rect" : [ 297.4375, 378.0, 25.0, 25.0 ]
				}

			}
, 			{
				"box" : 				{
					"comment" : "",
					"id" : "obj-52",
					"maxclass" : "outlet",
					"numinlets" : 1,
					"numoutlets" : 0,
					"patching_rect" : [ 283.0, 363.0, 25.0, 25.0 ]
				}

			}
, 			{
				"box" : 				{
					"fontname" : "Arial",
					"fontsize" : 12.0,
					"id" : "obj-31",
					"maxclass" : "newobj",
					"numinlets" : 17,
					"numoutlets" : 16,
					"outlettype" : [ "int", "int", "int", "int", "int", "int", "int", "int", "int", "int", "int", "int", "int", "int", "int", "int" ],
					"patching_rect" : [ 100.0, 114.0, 59.0, 20.0 ],
					"text" : "register"
				}

			}
, 			{
				"box" : 				{
					"annotation" : "load",
					"comment" : "",
					"id" : "obj-30",
					"maxclass" : "inlet",
					"numinlets" : 0,
					"numoutlets" : 1,
					"outlettype" : [ "" ],
					"patching_rect" : [ 508.0, 13.0, 25.0, 25.0 ]
				}

			}
, 			{
				"box" : 				{
					"comment" : "",
					"id" : "obj-29",
					"maxclass" : "inlet",
					"numinlets" : 0,
					"numoutlets" : 1,
					"outlettype" : [ "" ],
					"patching_rect" : [ 472.25, 13.0, 25.0, 25.0 ]
				}

			}
, 			{
				"box" : 				{
					"comment" : "",
					"id" : "obj-28",
					"maxclass" : "inlet",
					"numinlets" : 0,
					"numoutlets" : 1,
					"outlettype" : [ "" ],
					"patching_rect" : [ 428.0, 13.0, 25.0, 25.0 ]
				}

			}
, 			{
				"box" : 				{
					"comment" : "",
					"id" : "obj-27",
					"maxclass" : "inlet",
					"numinlets" : 0,
					"numoutlets" : 1,
					"outlettype" : [ "" ],
					"patching_rect" : [ 395.0, 13.0, 25.0, 25.0 ]
				}

			}
, 			{
				"box" : 				{
					"fontname" : "Arial",
					"fontsize" : 12.0,
					"id" : "obj-26",
					"maxclass" : "newobj",
					"numinlets" : 4,
					"numoutlets" : 8,
					"outlettype" : [ "int", "int", "int", "int", "int", "int", "int", "int" ],
					"patching_rect" : [ 428.0, 67.0, 113.5, 20.0 ],
					"text" : "dmux8way"
				}

			}
, 			{
				"box" : 				{
					"fontname" : "Arial",
					"fontsize" : 12.0,
					"id" : "obj-18",
					"maxclass" : "newobj",
					"numinlets" : 17,
					"numoutlets" : 16,
					"outlettype" : [ "int", "int", "int", "int", "int", "int", "int", "int", "int", "int", "int", "int", "int", "int", "int", "int" ],
					"patching_rect" : [ 39.5, 114.0, 57.0, 20.0 ],
					"text" : "register"
				}

			}
, 			{
				"box" : 				{
					"comment" : "",
					"id" : "obj-10",
					"maxclass" : "inlet",
					"numinlets" : 0,
					"numoutlets" : 1,
					"outlettype" : [ "" ],
					"patching_rect" : [ 268.0, 54.0, 25.0, 25.0 ]
				}

			}
, 			{
				"box" : 				{
					"comment" : "",
					"id" : "obj-11",
					"maxclass" : "inlet",
					"numinlets" : 0,
					"numoutlets" : 1,
					"outlettype" : [ "" ],
					"patching_rect" : [ 253.0, 39.0, 25.0, 25.0 ]
				}

			}
, 			{
				"box" : 				{
					"comment" : "",
					"id" : "obj-12",
					"maxclass" : "inlet",
					"numinlets" : 0,
					"numoutlets" : 1,
					"outlettype" : [ "" ],
					"patching_rect" : [ 238.0, 24.0, 25.0, 25.0 ]
				}

			}
, 			{
				"box" : 				{
					"comment" : "",
					"id" : "obj-13",
					"maxclass" : "inlet",
					"numinlets" : 0,
					"numoutlets" : 1,
					"outlettype" : [ "" ],
					"patching_rect" : [ 223.0, 9.0, 25.0, 25.0 ]
				}

			}
, 			{
				"box" : 				{
					"comment" : "",
					"id" : "obj-14",
					"maxclass" : "inlet",
					"numinlets" : 0,
					"numoutlets" : 1,
					"outlettype" : [ "" ],
					"patching_rect" : [ 204.0, 54.0, 25.0, 25.0 ]
				}

			}
, 			{
				"box" : 				{
					"comment" : "",
					"id" : "obj-15",
					"maxclass" : "inlet",
					"numinlets" : 0,
					"numoutlets" : 1,
					"outlettype" : [ "" ],
					"patching_rect" : [ 189.0, 39.0, 25.0, 25.0 ]
				}

			}
, 			{
				"box" : 				{
					"comment" : "",
					"id" : "obj-16",
					"maxclass" : "inlet",
					"numinlets" : 0,
					"numoutlets" : 1,
					"outlettype" : [ "" ],
					"patching_rect" : [ 174.0, 24.0, 25.0, 25.0 ]
				}

			}
, 			{
				"box" : 				{
					"comment" : "",
					"id" : "obj-17",
					"maxclass" : "inlet",
					"numinlets" : 0,
					"numoutlets" : 1,
					"outlettype" : [ "" ],
					"patching_rect" : [ 159.0, 9.0, 25.0, 25.0 ]
				}

			}
, 			{
				"box" : 				{
					"comment" : "",
					"id" : "obj-6",
					"maxclass" : "inlet",
					"numinlets" : 0,
					"numoutlets" : 1,
					"outlettype" : [ "" ],
					"patching_rect" : [ 134.0, 54.0, 25.0, 25.0 ]
				}

			}
, 			{
				"box" : 				{
					"comment" : "",
					"id" : "obj-7",
					"maxclass" : "inlet",
					"numinlets" : 0,
					"numoutlets" : 1,
					"outlettype" : [ "" ],
					"patching_rect" : [ 119.0, 39.0, 25.0, 25.0 ]
				}

			}
, 			{
				"box" : 				{
					"comment" : "",
					"id" : "obj-8",
					"maxclass" : "inlet",
					"numinlets" : 0,
					"numoutlets" : 1,
					"outlettype" : [ "" ],
					"patching_rect" : [ 104.0, 24.0, 25.0, 25.0 ]
				}

			}
, 			{
				"box" : 				{
					"comment" : "",
					"id" : "obj-9",
					"maxclass" : "inlet",
					"numinlets" : 0,
					"numoutlets" : 1,
					"outlettype" : [ "" ],
					"patching_rect" : [ 89.0, 9.0, 25.0, 25.0 ]
				}

			}
, 			{
				"box" : 				{
					"comment" : "",
					"id" : "obj-5",
					"maxclass" : "inlet",
					"numinlets" : 0,
					"numoutlets" : 1,
					"outlettype" : [ "" ],
					"patching_rect" : [ 66.0, 54.0, 25.0, 25.0 ]
				}

			}
, 			{
				"box" : 				{
					"comment" : "",
					"id" : "obj-4",
					"maxclass" : "inlet",
					"numinlets" : 0,
					"numoutlets" : 1,
					"outlettype" : [ "" ],
					"patching_rect" : [ 51.0, 39.0, 25.0, 25.0 ]
				}

			}
, 			{
				"box" : 				{
					"comment" : "",
					"id" : "obj-3",
					"maxclass" : "inlet",
					"numinlets" : 0,
					"numoutlets" : 1,
					"outlettype" : [ "" ],
					"patching_rect" : [ 36.0, 24.0, 25.0, 25.0 ]
				}

			}
, 			{
				"box" : 				{
					"comment" : "",
					"id" : "obj-2",
					"maxclass" : "inlet",
					"numinlets" : 0,
					"numoutlets" : 1,
					"outlettype" : [ "" ],
					"patching_rect" : [ 21.0, 9.0, 25.0, 25.0 ]
				}

			}
, 			{
				"box" : 				{
					"fontname" : "Arial",
					"fontsize" : 12.0,
					"id" : "obj-1",
					"maxclass" : "newobj",
					"numinlets" : 131,
					"numoutlets" : 16,
					"outlettype" : [ "int", "int", "int", "int", "int", "int", "int", "int", "int", "int", "int", "int", "int", "int", "int", "int" ],
					"patching_rect" : [ 161.1875, 227.0, 104.5, 20.0 ],
					"text" : "muxer8way"
				}

			}
 ],
		"lines" : [ 			{
				"patchline" : 				{
					"destination" : [ "obj-52", 0 ],
					"disabled" : 0,
					"hidden" : 0,
					"midpoints" : [ 170.6875, 348.0, 292.5, 348.0 ],
					"source" : [ "obj-1", 0 ]
				}

			}
, 			{
				"patchline" : 				{
					"destination" : [ "obj-53", 0 ],
					"disabled" : 0,
					"hidden" : 0,
					"midpoints" : [ 176.387497, 348.0, 309.0, 348.0, 309.0, 375.0, 306.9375, 375.0 ],
					"source" : [ "obj-1", 1 ]
				}

			}
, 			{
				"patchline" : 				{
					"destination" : [ "obj-54", 0 ],
					"disabled" : 0,
					"hidden" : 0,
					"midpoints" : [ 182.087494, 348.0, 324.0, 348.0, 324.0, 390.0, 321.375, 390.0 ],
					"source" : [ "obj-1", 2 ]
				}

			}
, 			{
				"patchline" : 				{
					"destination" : [ "obj-55", 0 ],
					"disabled" : 0,
					"hidden" : 0,
					"midpoints" : [ 187.787506, 348.0, 327.0, 348.0, 327.0, 390.0, 336.0, 390.0, 336.0, 405.0, 335.8125, 405.0 ],
					"source" : [ "obj-1", 3 ]
				}

			}
, 			{
				"patchline" : 				{
					"destination" : [ "obj-56", 0 ],
					"disabled" : 0,
					"hidden" : 0,
					"midpoints" : [ 210.587494, 348.0, 384.0, 348.0, 384.0, 390.0, 396.0, 390.0, 396.0, 405.0, 393.5625, 405.0 ],
					"source" : [ "obj-1", 7 ]
				}

			}
, 			{
				"patchline" : 				{
					"destination" : [ "obj-57", 0 ],
					"disabled" : 0,
					"hidden" : 0,
					"midpoints" : [ 204.887497, 348.0, 381.0, 348.0, 381.0, 390.0, 379.125, 390.0 ],
					"source" : [ "obj-1", 6 ]
				}

			}
, 			{
				"patchline" : 				{
					"destination" : [ "obj-58", 0 ],
					"disabled" : 0,
					"hidden" : 0,
					"midpoints" : [ 199.1875, 348.0, 366.0, 348.0, 366.0, 375.0, 364.6875, 375.0 ],
					"source" : [ "obj-1", 5 ]
				}

			}
, 			{
				"patchline" : 				{
					"destination" : [ "obj-59", 0 ],
					"disabled" : 0,
					"hidden" : 0,
					"midpoints" : [ 193.487503, 348.0, 350.25, 348.0 ],
					"source" : [ "obj-1", 4 ]
				}

			}
, 			{
				"patchline" : 				{
					"destination" : [ "obj-60", 0 ],
					"disabled" : 0,
					"hidden" : 0,
					"midpoints" : [ 256.1875, 348.0, 510.0, 348.0, 510.0, 405.0, 509.0625, 405.0 ],
					"source" : [ "obj-1", 15 ]
				}

			}
, 			{
				"patchline" : 				{
					"destination" : [ "obj-61", 0 ],
					"disabled" : 0,
					"hidden" : 0,
					"midpoints" : [ 250.487503, 348.0, 495.0, 348.0, 495.0, 390.0, 494.625, 390.0 ],
					"source" : [ "obj-1", 14 ]
				}

			}
, 			{
				"patchline" : 				{
					"destination" : [ "obj-62", 0 ],
					"disabled" : 0,
					"hidden" : 0,
					"midpoints" : [ 244.787506, 348.0, 483.0, 348.0, 483.0, 375.0, 480.1875, 375.0 ],
					"source" : [ "obj-1", 13 ]
				}

			}
, 			{
				"patchline" : 				{
					"destination" : [ "obj-63", 0 ],
					"disabled" : 0,
					"hidden" : 0,
					"midpoints" : [ 239.087494, 348.0, 465.75, 348.0 ],
					"source" : [ "obj-1", 12 ]
				}

			}
, 			{
				"patchline" : 				{
					"destination" : [ "obj-64", 0 ],
					"disabled" : 0,
					"hidden" : 0,
					"midpoints" : [ 233.387497, 348.0, 441.0, 348.0, 441.0, 390.0, 453.0, 390.0, 453.0, 405.0, 451.3125, 405.0 ],
					"source" : [ "obj-1", 11 ]
				}

			}
, 			{
				"patchline" : 				{
					"destination" : [ "obj-65", 0 ],
					"disabled" : 0,
					"hidden" : 0,
					"midpoints" : [ 227.6875, 348.0, 438.0, 348.0, 438.0, 390.0, 436.875, 390.0 ],
					"source" : [ "obj-1", 10 ]
				}

			}
, 			{
				"patchline" : 				{
					"destination" : [ "obj-66", 0 ],
					"disabled" : 0,
					"hidden" : 0,
					"midpoints" : [ 221.987503, 348.0, 423.0, 348.0, 423.0, 375.0, 422.4375, 375.0 ],
					"source" : [ "obj-1", 9 ]
				}

			}
, 			{
				"patchline" : 				{
					"destination" : [ "obj-67", 0 ],
					"disabled" : 0,
					"hidden" : 0,
					"midpoints" : [ 216.287506, 348.0, 408.0, 348.0 ],
					"source" : [ "obj-1", 8 ]
				}

			}
, 			{
				"patchline" : 				{
					"destination" : [ "obj-18", 15 ],
					"disabled" : 0,
					"hidden" : 0,
					"midpoints" : [ 277.5, 99.0, 90.3125, 99.0 ],
					"source" : [ "obj-10", 0 ]
				}

			}
, 			{
				"patchline" : 				{
					"destination" : [ "obj-31", 15 ],
					"disabled" : 0,
					"hidden" : 0,
					"midpoints" : [ 277.5, 99.0, 152.6875, 99.0 ],
					"source" : [ "obj-10", 0 ]
				}

			}
, 			{
				"patchline" : 				{
					"destination" : [ "obj-68", 15 ],
					"disabled" : 0,
					"hidden" : 0,
					"midpoints" : [ 277.5, 99.0, 212.761719, 99.0 ],
					"source" : [ "obj-10", 0 ]
				}

			}
, 			{
				"patchline" : 				{
					"destination" : [ "obj-69", 15 ],
					"disabled" : 0,
					"hidden" : 0,
					"midpoints" : [ 277.5, 99.0, 271.9375, 99.0 ],
					"source" : [ "obj-10", 0 ]
				}

			}
, 			{
				"patchline" : 				{
					"destination" : [ "obj-70", 15 ],
					"disabled" : 0,
					"hidden" : 0,
					"midpoints" : [ 277.5, 99.0, 330.882812, 99.0 ],
					"source" : [ "obj-10", 0 ]
				}

			}
, 			{
				"patchline" : 				{
					"destination" : [ "obj-71", 15 ],
					"disabled" : 0,
					"hidden" : 0,
					"midpoints" : [ 277.5, 99.0, 388.632812, 99.0 ],
					"source" : [ "obj-10", 0 ]
				}

			}
, 			{
				"patchline" : 				{
					"destination" : [ "obj-72", 15 ],
					"disabled" : 0,
					"hidden" : 0,
					"midpoints" : [ 277.5, 99.0, 446.75, 99.0 ],
					"source" : [ "obj-10", 0 ]
				}

			}
, 			{
				"patchline" : 				{
					"destination" : [ "obj-73", 15 ],
					"disabled" : 0,
					"hidden" : 0,
					"midpoints" : [ 277.5, 99.0, 504.132812, 99.0 ],
					"source" : [ "obj-10", 0 ]
				}

			}
, 			{
				"patchline" : 				{
					"destination" : [ "obj-18", 14 ],
					"disabled" : 0,
					"hidden" : 0,
					"midpoints" : [ 262.5, 66.0, 240.0, 66.0, 240.0, 99.0, 87.125, 99.0 ],
					"source" : [ "obj-11", 0 ]
				}

			}
, 			{
				"patchline" : 				{
					"destination" : [ "obj-31", 14 ],
					"disabled" : 0,
					"hidden" : 0,
					"midpoints" : [ 262.5, 66.0, 240.0, 66.0, 240.0, 99.0, 149.375, 99.0 ],
					"source" : [ "obj-11", 0 ]
				}

			}
, 			{
				"patchline" : 				{
					"destination" : [ "obj-68", 14 ],
					"disabled" : 0,
					"hidden" : 0,
					"midpoints" : [ 262.5, 66.0, 240.0, 66.0, 240.0, 99.0, 209.523438, 99.0 ],
					"source" : [ "obj-11", 0 ]
				}

			}
, 			{
				"patchline" : 				{
					"destination" : [ "obj-69", 14 ],
					"disabled" : 0,
					"hidden" : 0,
					"midpoints" : [ 262.5, 99.0, 268.875, 99.0 ],
					"source" : [ "obj-11", 0 ]
				}

			}
, 			{
				"patchline" : 				{
					"destination" : [ "obj-70", 14 ],
					"disabled" : 0,
					"hidden" : 0,
					"midpoints" : [ 262.5, 99.0, 327.890625, 99.0 ],
					"source" : [ "obj-11", 0 ]
				}

			}
, 			{
				"patchline" : 				{
					"destination" : [ "obj-71", 14 ],
					"disabled" : 0,
					"hidden" : 0,
					"midpoints" : [ 262.5, 99.0, 385.640625, 99.0 ],
					"source" : [ "obj-11", 0 ]
				}

			}
, 			{
				"patchline" : 				{
					"destination" : [ "obj-72", 14 ],
					"disabled" : 0,
					"hidden" : 0,
					"midpoints" : [ 262.5, 99.0, 443.5, 99.0 ],
					"source" : [ "obj-11", 0 ]
				}

			}
, 			{
				"patchline" : 				{
					"destination" : [ "obj-73", 14 ],
					"disabled" : 0,
					"hidden" : 0,
					"midpoints" : [ 262.5, 99.0, 501.140625, 99.0 ],
					"source" : [ "obj-11", 0 ]
				}

			}
, 			{
				"patchline" : 				{
					"destination" : [ "obj-18", 13 ],
					"disabled" : 0,
					"hidden" : 0,
					"midpoints" : [ 247.5, 51.0, 240.0, 51.0, 240.0, 99.0, 83.9375, 99.0 ],
					"source" : [ "obj-12", 0 ]
				}

			}
, 			{
				"patchline" : 				{
					"destination" : [ "obj-31", 13 ],
					"disabled" : 0,
					"hidden" : 0,
					"midpoints" : [ 247.5, 51.0, 240.0, 51.0, 240.0, 99.0, 146.0625, 99.0 ],
					"source" : [ "obj-12", 0 ]
				}

			}
, 			{
				"patchline" : 				{
					"destination" : [ "obj-68", 13 ],
					"disabled" : 0,
					"hidden" : 0,
					"midpoints" : [ 247.5, 51.0, 240.0, 51.0, 240.0, 99.0, 206.285156, 99.0 ],
					"source" : [ "obj-12", 0 ]
				}

			}
, 			{
				"patchline" : 				{
					"destination" : [ "obj-69", 13 ],
					"disabled" : 0,
					"hidden" : 0,
					"midpoints" : [ 247.5, 99.0, 265.8125, 99.0 ],
					"source" : [ "obj-12", 0 ]
				}

			}
, 			{
				"patchline" : 				{
					"destination" : [ "obj-70", 13 ],
					"disabled" : 0,
					"hidden" : 0,
					"midpoints" : [ 247.5, 99.0, 324.898438, 99.0 ],
					"source" : [ "obj-12", 0 ]
				}

			}
, 			{
				"patchline" : 				{
					"destination" : [ "obj-71", 13 ],
					"disabled" : 0,
					"hidden" : 0,
					"midpoints" : [ 247.5, 99.0, 382.648438, 99.0 ],
					"source" : [ "obj-12", 0 ]
				}

			}
, 			{
				"patchline" : 				{
					"destination" : [ "obj-72", 13 ],
					"disabled" : 0,
					"hidden" : 0,
					"midpoints" : [ 247.5, 99.0, 440.25, 99.0 ],
					"source" : [ "obj-12", 0 ]
				}

			}
, 			{
				"patchline" : 				{
					"destination" : [ "obj-73", 13 ],
					"disabled" : 0,
					"hidden" : 0,
					"midpoints" : [ 247.5, 99.0, 498.148438, 99.0 ],
					"source" : [ "obj-12", 0 ]
				}

			}
, 			{
				"patchline" : 				{
					"destination" : [ "obj-18", 12 ],
					"disabled" : 0,
					"hidden" : 0,
					"midpoints" : [ 232.5, 99.0, 80.75, 99.0 ],
					"source" : [ "obj-13", 0 ]
				}

			}
, 			{
				"patchline" : 				{
					"destination" : [ "obj-31", 12 ],
					"disabled" : 0,
					"hidden" : 0,
					"midpoints" : [ 232.5, 99.0, 142.75, 99.0 ],
					"source" : [ "obj-13", 0 ]
				}

			}
, 			{
				"patchline" : 				{
					"destination" : [ "obj-68", 12 ],
					"disabled" : 0,
					"hidden" : 0,
					"midpoints" : [ 232.5, 99.0, 203.046875, 99.0 ],
					"source" : [ "obj-13", 0 ]
				}

			}
, 			{
				"patchline" : 				{
					"destination" : [ "obj-69", 12 ],
					"disabled" : 0,
					"hidden" : 0,
					"midpoints" : [ 232.5, 60.0, 240.0, 60.0, 240.0, 99.0, 262.75, 99.0 ],
					"source" : [ "obj-13", 0 ]
				}

			}
, 			{
				"patchline" : 				{
					"destination" : [ "obj-70", 12 ],
					"disabled" : 0,
					"hidden" : 0,
					"midpoints" : [ 232.5, 60.0, 240.0, 60.0, 240.0, 99.0, 321.90625, 99.0 ],
					"source" : [ "obj-13", 0 ]
				}

			}
, 			{
				"patchline" : 				{
					"destination" : [ "obj-71", 12 ],
					"disabled" : 0,
					"hidden" : 0,
					"midpoints" : [ 232.5, 60.0, 240.0, 60.0, 240.0, 99.0, 379.65625, 99.0 ],
					"source" : [ "obj-13", 0 ]
				}

			}
, 			{
				"patchline" : 				{
					"destination" : [ "obj-72", 12 ],
					"disabled" : 0,
					"hidden" : 0,
					"midpoints" : [ 232.5, 60.0, 240.0, 60.0, 240.0, 99.0, 437.0, 99.0 ],
					"source" : [ "obj-13", 0 ]
				}

			}
, 			{
				"patchline" : 				{
					"destination" : [ "obj-73", 12 ],
					"disabled" : 0,
					"hidden" : 0,
					"midpoints" : [ 232.5, 60.0, 240.0, 60.0, 240.0, 99.0, 495.15625, 99.0 ],
					"source" : [ "obj-13", 0 ]
				}

			}
, 			{
				"patchline" : 				{
					"destination" : [ "obj-18", 11 ],
					"disabled" : 0,
					"hidden" : 0,
					"midpoints" : [ 213.5, 99.0, 77.5625, 99.0 ],
					"source" : [ "obj-14", 0 ]
				}

			}
, 			{
				"patchline" : 				{
					"destination" : [ "obj-31", 11 ],
					"disabled" : 0,
					"hidden" : 0,
					"midpoints" : [ 213.5, 99.0, 139.4375, 99.0 ],
					"source" : [ "obj-14", 0 ]
				}

			}
, 			{
				"patchline" : 				{
					"destination" : [ "obj-68", 11 ],
					"disabled" : 0,
					"hidden" : 0,
					"midpoints" : [ 213.5, 99.0, 199.808594, 99.0 ],
					"source" : [ "obj-14", 0 ]
				}

			}
, 			{
				"patchline" : 				{
					"destination" : [ "obj-69", 11 ],
					"disabled" : 0,
					"hidden" : 0,
					"midpoints" : [ 213.5, 99.0, 259.6875, 99.0 ],
					"source" : [ "obj-14", 0 ]
				}

			}
, 			{
				"patchline" : 				{
					"destination" : [ "obj-70", 11 ],
					"disabled" : 0,
					"hidden" : 0,
					"midpoints" : [ 213.5, 99.0, 318.914062, 99.0 ],
					"source" : [ "obj-14", 0 ]
				}

			}
, 			{
				"patchline" : 				{
					"destination" : [ "obj-71", 11 ],
					"disabled" : 0,
					"hidden" : 0,
					"midpoints" : [ 213.5, 99.0, 376.664062, 99.0 ],
					"source" : [ "obj-14", 0 ]
				}

			}
, 			{
				"patchline" : 				{
					"destination" : [ "obj-72", 11 ],
					"disabled" : 0,
					"hidden" : 0,
					"midpoints" : [ 213.5, 99.0, 433.75, 99.0 ],
					"source" : [ "obj-14", 0 ]
				}

			}
, 			{
				"patchline" : 				{
					"destination" : [ "obj-73", 11 ],
					"disabled" : 0,
					"hidden" : 0,
					"midpoints" : [ 213.5, 99.0, 492.164062, 99.0 ],
					"source" : [ "obj-14", 0 ]
				}

			}
, 			{
				"patchline" : 				{
					"destination" : [ "obj-18", 10 ],
					"disabled" : 0,
					"hidden" : 0,
					"midpoints" : [ 198.5, 66.0, 171.0, 66.0, 171.0, 99.0, 74.375, 99.0 ],
					"source" : [ "obj-15", 0 ]
				}

			}
, 			{
				"patchline" : 				{
					"destination" : [ "obj-31", 10 ],
					"disabled" : 0,
					"hidden" : 0,
					"midpoints" : [ 198.5, 66.0, 171.0, 66.0, 171.0, 99.0, 136.125, 99.0 ],
					"source" : [ "obj-15", 0 ]
				}

			}
, 			{
				"patchline" : 				{
					"destination" : [ "obj-68", 10 ],
					"disabled" : 0,
					"hidden" : 0,
					"midpoints" : [ 198.5, 111.0, 196.570312, 111.0 ],
					"source" : [ "obj-15", 0 ]
				}

			}
, 			{
				"patchline" : 				{
					"destination" : [ "obj-69", 10 ],
					"disabled" : 0,
					"hidden" : 0,
					"midpoints" : [ 198.5, 99.0, 256.625, 99.0 ],
					"source" : [ "obj-15", 0 ]
				}

			}
, 			{
				"patchline" : 				{
					"destination" : [ "obj-70", 10 ],
					"disabled" : 0,
					"hidden" : 0,
					"midpoints" : [ 198.5, 99.0, 315.921875, 99.0 ],
					"source" : [ "obj-15", 0 ]
				}

			}
, 			{
				"patchline" : 				{
					"destination" : [ "obj-71", 10 ],
					"disabled" : 0,
					"hidden" : 0,
					"midpoints" : [ 198.5, 99.0, 373.671875, 99.0 ],
					"source" : [ "obj-15", 0 ]
				}

			}
, 			{
				"patchline" : 				{
					"destination" : [ "obj-72", 10 ],
					"disabled" : 0,
					"hidden" : 0,
					"midpoints" : [ 198.5, 99.0, 430.5, 99.0 ],
					"source" : [ "obj-15", 0 ]
				}

			}
, 			{
				"patchline" : 				{
					"destination" : [ "obj-73", 10 ],
					"disabled" : 0,
					"hidden" : 0,
					"midpoints" : [ 198.5, 99.0, 489.171875, 99.0 ],
					"source" : [ "obj-15", 0 ]
				}

			}
, 			{
				"patchline" : 				{
					"destination" : [ "obj-18", 9 ],
					"disabled" : 0,
					"hidden" : 0,
					"midpoints" : [ 183.5, 51.0, 174.0, 51.0, 174.0, 99.0, 71.1875, 99.0 ],
					"source" : [ "obj-16", 0 ]
				}

			}
, 			{
				"patchline" : 				{
					"destination" : [ "obj-31", 9 ],
					"disabled" : 0,
					"hidden" : 0,
					"midpoints" : [ 183.5, 51.0, 174.0, 51.0, 174.0, 99.0, 132.8125, 99.0 ],
					"source" : [ "obj-16", 0 ]
				}

			}
, 			{
				"patchline" : 				{
					"destination" : [ "obj-68", 9 ],
					"disabled" : 0,
					"hidden" : 0,
					"midpoints" : [ 183.5, 99.0, 193.332031, 99.0 ],
					"source" : [ "obj-16", 0 ]
				}

			}
, 			{
				"patchline" : 				{
					"destination" : [ "obj-69", 9 ],
					"disabled" : 0,
					"hidden" : 0,
					"midpoints" : [ 183.5, 99.0, 253.5625, 99.0 ],
					"source" : [ "obj-16", 0 ]
				}

			}
, 			{
				"patchline" : 				{
					"destination" : [ "obj-70", 9 ],
					"disabled" : 0,
					"hidden" : 0,
					"midpoints" : [ 183.5, 99.0, 312.929688, 99.0 ],
					"source" : [ "obj-16", 0 ]
				}

			}
, 			{
				"patchline" : 				{
					"destination" : [ "obj-71", 9 ],
					"disabled" : 0,
					"hidden" : 0,
					"midpoints" : [ 183.5, 99.0, 370.679688, 99.0 ],
					"source" : [ "obj-16", 0 ]
				}

			}
, 			{
				"patchline" : 				{
					"destination" : [ "obj-72", 9 ],
					"disabled" : 0,
					"hidden" : 0,
					"midpoints" : [ 183.5, 99.0, 427.25, 99.0 ],
					"source" : [ "obj-16", 0 ]
				}

			}
, 			{
				"patchline" : 				{
					"destination" : [ "obj-73", 9 ],
					"disabled" : 0,
					"hidden" : 0,
					"midpoints" : [ 183.5, 99.0, 486.179688, 99.0 ],
					"source" : [ "obj-16", 0 ]
				}

			}
, 			{
				"patchline" : 				{
					"destination" : [ "obj-18", 8 ],
					"disabled" : 0,
					"hidden" : 0,
					"midpoints" : [ 168.5, 99.0, 68.0, 99.0 ],
					"source" : [ "obj-17", 0 ]
				}

			}
, 			{
				"patchline" : 				{
					"destination" : [ "obj-31", 8 ],
					"disabled" : 0,
					"hidden" : 0,
					"midpoints" : [ 168.5, 99.0, 129.5, 99.0 ],
					"source" : [ "obj-17", 0 ]
				}

			}
, 			{
				"patchline" : 				{
					"destination" : [ "obj-68", 8 ],
					"disabled" : 0,
					"hidden" : 0,
					"midpoints" : [ 168.5, 60.0, 174.0, 60.0, 174.0, 99.0, 190.09375, 99.0 ],
					"source" : [ "obj-17", 0 ]
				}

			}
, 			{
				"patchline" : 				{
					"destination" : [ "obj-69", 8 ],
					"disabled" : 0,
					"hidden" : 0,
					"midpoints" : [ 168.5, 60.0, 174.0, 60.0, 174.0, 99.0, 250.5, 99.0 ],
					"source" : [ "obj-17", 0 ]
				}

			}
, 			{
				"patchline" : 				{
					"destination" : [ "obj-70", 8 ],
					"disabled" : 0,
					"hidden" : 0,
					"midpoints" : [ 168.5, 60.0, 174.0, 60.0, 174.0, 99.0, 309.9375, 99.0 ],
					"source" : [ "obj-17", 0 ]
				}

			}
, 			{
				"patchline" : 				{
					"destination" : [ "obj-71", 8 ],
					"disabled" : 0,
					"hidden" : 0,
					"midpoints" : [ 168.5, 60.0, 174.0, 60.0, 174.0, 99.0, 367.6875, 99.0 ],
					"source" : [ "obj-17", 0 ]
				}

			}
, 			{
				"patchline" : 				{
					"destination" : [ "obj-72", 8 ],
					"disabled" : 0,
					"hidden" : 0,
					"midpoints" : [ 168.5, 60.0, 174.0, 60.0, 174.0, 99.0, 424.0, 99.0 ],
					"source" : [ "obj-17", 0 ]
				}

			}
, 			{
				"patchline" : 				{
					"destination" : [ "obj-73", 8 ],
					"disabled" : 0,
					"hidden" : 0,
					"midpoints" : [ 168.5, 60.0, 174.0, 60.0, 174.0, 99.0, 483.1875, 99.0 ],
					"source" : [ "obj-17", 0 ]
				}

			}
, 			{
				"patchline" : 				{
					"destination" : [ "obj-1", 15 ],
					"disabled" : 0,
					"hidden" : 0,
					"midpoints" : [ 93.5, 213.0, 175.552887, 213.0 ],
					"source" : [ "obj-18", 15 ]
				}

			}
, 			{
				"patchline" : 				{
					"destination" : [ "obj-1", 14 ],
					"disabled" : 0,
					"hidden" : 0,
					"midpoints" : [ 90.099998, 213.0, 174.795197, 213.0 ],
					"source" : [ "obj-18", 14 ]
				}

			}
, 			{
				"patchline" : 				{
					"destination" : [ "obj-1", 13 ],
					"disabled" : 0,
					"hidden" : 0,
					"midpoints" : [ 86.699997, 213.0, 174.037506, 213.0 ],
					"source" : [ "obj-18", 13 ]
				}

			}
, 			{
				"patchline" : 				{
					"destination" : [ "obj-1", 12 ],
					"disabled" : 0,
					"hidden" : 0,
					"midpoints" : [ 83.300003, 213.0, 173.2798, 213.0 ],
					"source" : [ "obj-18", 12 ]
				}

			}
, 			{
				"patchline" : 				{
					"destination" : [ "obj-1", 11 ],
					"disabled" : 0,
					"hidden" : 0,
					"midpoints" : [ 79.900002, 213.0, 172.52211, 213.0 ],
					"source" : [ "obj-18", 11 ]
				}

			}
, 			{
				"patchline" : 				{
					"destination" : [ "obj-1", 10 ],
					"disabled" : 0,
					"hidden" : 0,
					"midpoints" : [ 76.5, 213.0, 171.76442, 213.0 ],
					"source" : [ "obj-18", 10 ]
				}

			}
, 			{
				"patchline" : 				{
					"destination" : [ "obj-1", 9 ],
					"disabled" : 0,
					"hidden" : 0,
					"midpoints" : [ 73.099998, 213.0, 171.006729, 213.0 ],
					"source" : [ "obj-18", 9 ]
				}

			}
, 			{
				"patchline" : 				{
					"destination" : [ "obj-1", 8 ],
					"disabled" : 0,
					"hidden" : 0,
					"midpoints" : [ 69.699997, 213.0, 170.249039, 213.0 ],
					"source" : [ "obj-18", 8 ]
				}

			}
, 			{
				"patchline" : 				{
					"destination" : [ "obj-1", 7 ],
					"disabled" : 0,
					"hidden" : 0,
					"midpoints" : [ 66.300003, 213.0, 169.491348, 213.0 ],
					"source" : [ "obj-18", 7 ]
				}

			}
, 			{
				"patchline" : 				{
					"destination" : [ "obj-1", 6 ],
					"disabled" : 0,
					"hidden" : 0,
					"midpoints" : [ 62.900002, 213.0, 168.733658, 213.0 ],
					"source" : [ "obj-18", 6 ]
				}

			}
, 			{
				"patchline" : 				{
					"destination" : [ "obj-1", 5 ],
					"disabled" : 0,
					"hidden" : 0,
					"midpoints" : [ 59.5, 213.0, 167.975967, 213.0 ],
					"source" : [ "obj-18", 5 ]
				}

			}
, 			{
				"patchline" : 				{
					"destination" : [ "obj-1", 4 ],
					"disabled" : 0,
					"hidden" : 0,
					"midpoints" : [ 56.099998, 213.0, 167.218262, 213.0 ],
					"source" : [ "obj-18", 4 ]
				}

			}
, 			{
				"patchline" : 				{
					"destination" : [ "obj-1", 3 ],
					"disabled" : 0,
					"hidden" : 0,
					"midpoints" : [ 52.700001, 213.0, 166.460571, 213.0 ],
					"source" : [ "obj-18", 3 ]
				}

			}
, 			{
				"patchline" : 				{
					"destination" : [ "obj-1", 2 ],
					"disabled" : 0,
					"hidden" : 0,
					"midpoints" : [ 49.299999, 213.0, 165.702881, 213.0 ],
					"source" : [ "obj-18", 2 ]
				}

			}
, 			{
				"patchline" : 				{
					"destination" : [ "obj-1", 1 ],
					"disabled" : 0,
					"hidden" : 0,
					"midpoints" : [ 45.900002, 213.0, 164.94519, 213.0 ],
					"source" : [ "obj-18", 1 ]
				}

			}
, 			{
				"patchline" : 				{
					"destination" : [ "obj-1", 0 ],
					"disabled" : 0,
					"hidden" : 0,
					"midpoints" : [ 42.5, 213.0, 164.1875, 213.0 ],
					"source" : [ "obj-18", 0 ]
				}

			}
, 			{
				"patchline" : 				{
					"destination" : [ "obj-18", 0 ],
					"disabled" : 0,
					"hidden" : 0,
					"midpoints" : [ 30.5, 99.0, 42.5, 99.0 ],
					"source" : [ "obj-2", 0 ]
				}

			}
, 			{
				"patchline" : 				{
					"destination" : [ "obj-31", 0 ],
					"disabled" : 0,
					"hidden" : 0,
					"midpoints" : [ 30.5, 99.0, 103.0, 99.0 ],
					"source" : [ "obj-2", 0 ]
				}

			}
, 			{
				"patchline" : 				{
					"destination" : [ "obj-68", 0 ],
					"disabled" : 0,
					"hidden" : 0,
					"midpoints" : [ 30.5, 99.0, 164.1875, 99.0 ],
					"source" : [ "obj-2", 0 ]
				}

			}
, 			{
				"patchline" : 				{
					"destination" : [ "obj-69", 0 ],
					"disabled" : 0,
					"hidden" : 0,
					"midpoints" : [ 30.5, 99.0, 226.0, 99.0 ],
					"source" : [ "obj-2", 0 ]
				}

			}
, 			{
				"patchline" : 				{
					"destination" : [ "obj-70", 0 ],
					"disabled" : 0,
					"hidden" : 0,
					"midpoints" : [ 30.5, 99.0, 286.0, 99.0 ],
					"source" : [ "obj-2", 0 ]
				}

			}
, 			{
				"patchline" : 				{
					"destination" : [ "obj-71", 0 ],
					"disabled" : 0,
					"hidden" : 0,
					"midpoints" : [ 30.5, 99.0, 343.75, 99.0 ],
					"source" : [ "obj-2", 0 ]
				}

			}
, 			{
				"patchline" : 				{
					"destination" : [ "obj-72", 0 ],
					"disabled" : 0,
					"hidden" : 0,
					"midpoints" : [ 30.5, 99.0, 398.0, 99.0 ],
					"source" : [ "obj-2", 0 ]
				}

			}
, 			{
				"patchline" : 				{
					"destination" : [ "obj-73", 0 ],
					"disabled" : 0,
					"hidden" : 0,
					"midpoints" : [ 30.5, 99.0, 459.25, 99.0 ],
					"source" : [ "obj-2", 0 ]
				}

			}
, 			{
				"patchline" : 				{
					"destination" : [ "obj-18", 16 ],
					"disabled" : 0,
					"hidden" : 0,
					"midpoints" : [ 437.5, 99.0, 93.5, 99.0 ],
					"source" : [ "obj-26", 0 ]
				}

			}
, 			{
				"patchline" : 				{
					"destination" : [ "obj-31", 16 ],
					"disabled" : 0,
					"hidden" : 0,
					"midpoints" : [ 451.0, 99.0, 156.0, 99.0 ],
					"source" : [ "obj-26", 1 ]
				}

			}
, 			{
				"patchline" : 				{
					"destination" : [ "obj-68", 16 ],
					"disabled" : 0,
					"hidden" : 0,
					"midpoints" : [ 464.5, 99.0, 216.0, 99.0 ],
					"source" : [ "obj-26", 2 ]
				}

			}
, 			{
				"patchline" : 				{
					"destination" : [ "obj-69", 16 ],
					"disabled" : 0,
					"hidden" : 0,
					"midpoints" : [ 478.0, 99.0, 275.0, 99.0 ],
					"source" : [ "obj-26", 3 ]
				}

			}
, 			{
				"patchline" : 				{
					"destination" : [ "obj-70", 16 ],
					"disabled" : 0,
					"hidden" : 0,
					"midpoints" : [ 491.5, 99.0, 333.875, 99.0 ],
					"source" : [ "obj-26", 4 ]
				}

			}
, 			{
				"patchline" : 				{
					"destination" : [ "obj-71", 16 ],
					"disabled" : 0,
					"hidden" : 0,
					"midpoints" : [ 505.0, 99.0, 391.625, 99.0 ],
					"source" : [ "obj-26", 5 ]
				}

			}
, 			{
				"patchline" : 				{
					"destination" : [ "obj-72", 16 ],
					"disabled" : 0,
					"hidden" : 0,
					"midpoints" : [ 518.5, 99.0, 450.0, 99.0 ],
					"source" : [ "obj-26", 6 ]
				}

			}
, 			{
				"patchline" : 				{
					"destination" : [ "obj-73", 16 ],
					"disabled" : 0,
					"hidden" : 0,
					"midpoints" : [ 532.0, 111.0, 507.125, 111.0 ],
					"source" : [ "obj-26", 7 ]
				}

			}
, 			{
				"patchline" : 				{
					"destination" : [ "obj-1", 128 ],
					"disabled" : 0,
					"hidden" : 0,
					"midpoints" : [ 404.5, 99.0, 279.0, 99.0, 279.0, 213.0, 261.172119, 213.0 ],
					"source" : [ "obj-27", 0 ]
				}

			}
, 			{
				"patchline" : 				{
					"destination" : [ "obj-26", 1 ],
					"disabled" : 0,
					"hidden" : 0,
					"midpoints" : [ 404.5, 54.0, 469.0, 54.0 ],
					"source" : [ "obj-27", 0 ]
				}

			}
, 			{
				"patchline" : 				{
					"destination" : [ "obj-1", 129 ],
					"disabled" : 0,
					"hidden" : 0,
					"midpoints" : [ 437.5, 54.0, 336.0, 54.0, 336.0, 213.0, 261.92981, 213.0 ],
					"source" : [ "obj-28", 0 ]
				}

			}
, 			{
				"patchline" : 				{
					"destination" : [ "obj-26", 2 ],
					"disabled" : 0,
					"hidden" : 0,
					"midpoints" : [ 437.5, 54.0, 500.5, 54.0 ],
					"source" : [ "obj-28", 0 ]
				}

			}
, 			{
				"patchline" : 				{
					"destination" : [ "obj-1", 130 ],
					"disabled" : 0,
					"hidden" : 0,
					"midpoints" : [ 481.75, 54.0, 336.0, 54.0, 336.0, 213.0, 262.6875, 213.0 ],
					"source" : [ "obj-29", 0 ]
				}

			}
, 			{
				"patchline" : 				{
					"destination" : [ "obj-26", 3 ],
					"disabled" : 0,
					"hidden" : 0,
					"midpoints" : [ 481.75, 54.0, 532.0, 54.0 ],
					"source" : [ "obj-29", 0 ]
				}

			}
, 			{
				"patchline" : 				{
					"destination" : [ "obj-18", 1 ],
					"disabled" : 0,
					"hidden" : 0,
					"midpoints" : [ 45.5, 51.0, 45.6875, 51.0 ],
					"source" : [ "obj-3", 0 ]
				}

			}
, 			{
				"patchline" : 				{
					"destination" : [ "obj-31", 1 ],
					"disabled" : 0,
					"hidden" : 0,
					"midpoints" : [ 45.5, 99.0, 106.3125, 99.0 ],
					"source" : [ "obj-3", 0 ]
				}

			}
, 			{
				"patchline" : 				{
					"destination" : [ "obj-68", 1 ],
					"disabled" : 0,
					"hidden" : 0,
					"midpoints" : [ 45.5, 99.0, 167.425781, 99.0 ],
					"source" : [ "obj-3", 0 ]
				}

			}
, 			{
				"patchline" : 				{
					"destination" : [ "obj-69", 1 ],
					"disabled" : 0,
					"hidden" : 0,
					"midpoints" : [ 45.5, 99.0, 229.0625, 99.0 ],
					"source" : [ "obj-3", 0 ]
				}

			}
, 			{
				"patchline" : 				{
					"destination" : [ "obj-70", 1 ],
					"disabled" : 0,
					"hidden" : 0,
					"midpoints" : [ 45.5, 99.0, 288.992188, 99.0 ],
					"source" : [ "obj-3", 0 ]
				}

			}
, 			{
				"patchline" : 				{
					"destination" : [ "obj-71", 1 ],
					"disabled" : 0,
					"hidden" : 0,
					"midpoints" : [ 45.5, 99.0, 346.742188, 99.0 ],
					"source" : [ "obj-3", 0 ]
				}

			}
, 			{
				"patchline" : 				{
					"destination" : [ "obj-72", 1 ],
					"disabled" : 0,
					"hidden" : 0,
					"midpoints" : [ 45.5, 99.0, 401.25, 99.0 ],
					"source" : [ "obj-3", 0 ]
				}

			}
, 			{
				"patchline" : 				{
					"destination" : [ "obj-73", 1 ],
					"disabled" : 0,
					"hidden" : 0,
					"midpoints" : [ 45.5, 99.0, 462.242188, 99.0 ],
					"source" : [ "obj-3", 0 ]
				}

			}
, 			{
				"patchline" : 				{
					"destination" : [ "obj-26", 0 ],
					"disabled" : 0,
					"hidden" : 0,
					"midpoints" : [ 517.5, 54.0, 437.5, 54.0 ],
					"source" : [ "obj-30", 0 ]
				}

			}
, 			{
				"patchline" : 				{
					"destination" : [ "obj-1", 31 ],
					"disabled" : 0,
					"hidden" : 0,
					"midpoints" : [ 156.0, 213.0, 187.675964, 213.0 ],
					"source" : [ "obj-31", 15 ]
				}

			}
, 			{
				"patchline" : 				{
					"destination" : [ "obj-1", 30 ],
					"disabled" : 0,
					"hidden" : 0,
					"midpoints" : [ 152.46666, 213.0, 186.918274, 213.0 ],
					"source" : [ "obj-31", 14 ]
				}

			}
, 			{
				"patchline" : 				{
					"destination" : [ "obj-1", 29 ],
					"disabled" : 0,
					"hidden" : 0,
					"midpoints" : [ 148.933334, 213.0, 186.160583, 213.0 ],
					"source" : [ "obj-31", 13 ]
				}

			}
, 			{
				"patchline" : 				{
					"destination" : [ "obj-1", 28 ],
					"disabled" : 0,
					"hidden" : 0,
					"midpoints" : [ 145.399994, 213.0, 185.402878, 213.0 ],
					"source" : [ "obj-31", 12 ]
				}

			}
, 			{
				"patchline" : 				{
					"destination" : [ "obj-1", 27 ],
					"disabled" : 0,
					"hidden" : 0,
					"midpoints" : [ 141.866669, 213.0, 184.645187, 213.0 ],
					"source" : [ "obj-31", 11 ]
				}

			}
, 			{
				"patchline" : 				{
					"destination" : [ "obj-1", 26 ],
					"disabled" : 0,
					"hidden" : 0,
					"midpoints" : [ 138.333328, 213.0, 183.887497, 213.0 ],
					"source" : [ "obj-31", 10 ]
				}

			}
, 			{
				"patchline" : 				{
					"destination" : [ "obj-1", 25 ],
					"disabled" : 0,
					"hidden" : 0,
					"midpoints" : [ 134.800003, 213.0, 183.129807, 213.0 ],
					"source" : [ "obj-31", 9 ]
				}

			}
, 			{
				"patchline" : 				{
					"destination" : [ "obj-1", 24 ],
					"disabled" : 0,
					"hidden" : 0,
					"midpoints" : [ 131.266663, 213.0, 182.372116, 213.0 ],
					"source" : [ "obj-31", 8 ]
				}

			}
, 			{
				"patchline" : 				{
					"destination" : [ "obj-1", 23 ],
					"disabled" : 0,
					"hidden" : 0,
					"midpoints" : [ 127.73333, 213.0, 181.614426, 213.0 ],
					"source" : [ "obj-31", 7 ]
				}

			}
, 			{
				"patchline" : 				{
					"destination" : [ "obj-1", 22 ],
					"disabled" : 0,
					"hidden" : 0,
					"midpoints" : [ 124.199997, 213.0, 180.856735, 213.0 ],
					"source" : [ "obj-31", 6 ]
				}

			}
, 			{
				"patchline" : 				{
					"destination" : [ "obj-1", 21 ],
					"disabled" : 0,
					"hidden" : 0,
					"midpoints" : [ 120.666664, 213.0, 180.099045, 213.0 ],
					"source" : [ "obj-31", 5 ]
				}

			}
, 			{
				"patchline" : 				{
					"destination" : [ "obj-1", 20 ],
					"disabled" : 0,
					"hidden" : 0,
					"midpoints" : [ 117.133331, 213.0, 179.341339, 213.0 ],
					"source" : [ "obj-31", 4 ]
				}

			}
, 			{
				"patchline" : 				{
					"destination" : [ "obj-1", 19 ],
					"disabled" : 0,
					"hidden" : 0,
					"midpoints" : [ 113.599998, 213.0, 178.583649, 213.0 ],
					"source" : [ "obj-31", 3 ]
				}

			}
, 			{
				"patchline" : 				{
					"destination" : [ "obj-1", 18 ],
					"disabled" : 0,
					"hidden" : 0,
					"midpoints" : [ 110.066666, 213.0, 177.825958, 213.0 ],
					"source" : [ "obj-31", 2 ]
				}

			}
, 			{
				"patchline" : 				{
					"destination" : [ "obj-1", 17 ],
					"disabled" : 0,
					"hidden" : 0,
					"midpoints" : [ 106.533333, 213.0, 177.068268, 213.0 ],
					"source" : [ "obj-31", 1 ]
				}

			}
, 			{
				"patchline" : 				{
					"destination" : [ "obj-1", 16 ],
					"disabled" : 0,
					"hidden" : 0,
					"midpoints" : [ 103.0, 213.0, 176.310577, 213.0 ],
					"source" : [ "obj-31", 0 ]
				}

			}
, 			{
				"patchline" : 				{
					"destination" : [ "obj-18", 2 ],
					"disabled" : 0,
					"hidden" : 0,
					"midpoints" : [ 60.5, 66.0, 51.0, 66.0, 51.0, 111.0, 48.875, 111.0 ],
					"source" : [ "obj-4", 0 ]
				}

			}
, 			{
				"patchline" : 				{
					"destination" : [ "obj-31", 2 ],
					"disabled" : 0,
					"hidden" : 0,
					"midpoints" : [ 60.5, 99.0, 109.625, 99.0 ],
					"source" : [ "obj-4", 0 ]
				}

			}
, 			{
				"patchline" : 				{
					"destination" : [ "obj-68", 2 ],
					"disabled" : 0,
					"hidden" : 0,
					"midpoints" : [ 60.5, 99.0, 170.664062, 99.0 ],
					"source" : [ "obj-4", 0 ]
				}

			}
, 			{
				"patchline" : 				{
					"destination" : [ "obj-69", 2 ],
					"disabled" : 0,
					"hidden" : 0,
					"midpoints" : [ 60.5, 99.0, 232.125, 99.0 ],
					"source" : [ "obj-4", 0 ]
				}

			}
, 			{
				"patchline" : 				{
					"destination" : [ "obj-70", 2 ],
					"disabled" : 0,
					"hidden" : 0,
					"midpoints" : [ 60.5, 99.0, 291.984375, 99.0 ],
					"source" : [ "obj-4", 0 ]
				}

			}
, 			{
				"patchline" : 				{
					"destination" : [ "obj-71", 2 ],
					"disabled" : 0,
					"hidden" : 0,
					"midpoints" : [ 60.5, 99.0, 349.734375, 99.0 ],
					"source" : [ "obj-4", 0 ]
				}

			}
, 			{
				"patchline" : 				{
					"destination" : [ "obj-72", 2 ],
					"disabled" : 0,
					"hidden" : 0,
					"midpoints" : [ 60.5, 99.0, 404.5, 99.0 ],
					"source" : [ "obj-4", 0 ]
				}

			}
, 			{
				"patchline" : 				{
					"destination" : [ "obj-73", 2 ],
					"disabled" : 0,
					"hidden" : 0,
					"midpoints" : [ 60.5, 99.0, 465.234375, 99.0 ],
					"source" : [ "obj-4", 0 ]
				}

			}
, 			{
				"patchline" : 				{
					"destination" : [ "obj-18", 3 ],
					"disabled" : 0,
					"hidden" : 0,
					"midpoints" : [ 75.5, 99.0, 52.0625, 99.0 ],
					"source" : [ "obj-5", 0 ]
				}

			}
, 			{
				"patchline" : 				{
					"destination" : [ "obj-31", 3 ],
					"disabled" : 0,
					"hidden" : 0,
					"midpoints" : [ 75.5, 99.0, 112.9375, 99.0 ],
					"source" : [ "obj-5", 0 ]
				}

			}
, 			{
				"patchline" : 				{
					"destination" : [ "obj-68", 3 ],
					"disabled" : 0,
					"hidden" : 0,
					"midpoints" : [ 75.5, 99.0, 173.902344, 99.0 ],
					"source" : [ "obj-5", 0 ]
				}

			}
, 			{
				"patchline" : 				{
					"destination" : [ "obj-69", 3 ],
					"disabled" : 0,
					"hidden" : 0,
					"midpoints" : [ 75.5, 99.0, 235.1875, 99.0 ],
					"source" : [ "obj-5", 0 ]
				}

			}
, 			{
				"patchline" : 				{
					"destination" : [ "obj-70", 3 ],
					"disabled" : 0,
					"hidden" : 0,
					"midpoints" : [ 75.5, 99.0, 294.976562, 99.0 ],
					"source" : [ "obj-5", 0 ]
				}

			}
, 			{
				"patchline" : 				{
					"destination" : [ "obj-71", 3 ],
					"disabled" : 0,
					"hidden" : 0,
					"midpoints" : [ 75.5, 99.0, 352.726562, 99.0 ],
					"source" : [ "obj-5", 0 ]
				}

			}
, 			{
				"patchline" : 				{
					"destination" : [ "obj-72", 3 ],
					"disabled" : 0,
					"hidden" : 0,
					"midpoints" : [ 75.5, 99.0, 407.75, 99.0 ],
					"source" : [ "obj-5", 0 ]
				}

			}
, 			{
				"patchline" : 				{
					"destination" : [ "obj-73", 3 ],
					"disabled" : 0,
					"hidden" : 0,
					"midpoints" : [ 75.5, 99.0, 468.226562, 99.0 ],
					"source" : [ "obj-5", 0 ]
				}

			}
, 			{
				"patchline" : 				{
					"destination" : [ "obj-18", 7 ],
					"disabled" : 0,
					"hidden" : 0,
					"midpoints" : [ 143.5, 99.0, 64.8125, 99.0 ],
					"source" : [ "obj-6", 0 ]
				}

			}
, 			{
				"patchline" : 				{
					"destination" : [ "obj-31", 7 ],
					"disabled" : 0,
					"hidden" : 0,
					"midpoints" : [ 143.5, 99.0, 126.1875, 99.0 ],
					"source" : [ "obj-6", 0 ]
				}

			}
, 			{
				"patchline" : 				{
					"destination" : [ "obj-68", 7 ],
					"disabled" : 0,
					"hidden" : 0,
					"midpoints" : [ 143.5, 99.0, 186.855469, 99.0 ],
					"source" : [ "obj-6", 0 ]
				}

			}
, 			{
				"patchline" : 				{
					"destination" : [ "obj-69", 7 ],
					"disabled" : 0,
					"hidden" : 0,
					"midpoints" : [ 143.5, 99.0, 247.4375, 99.0 ],
					"source" : [ "obj-6", 0 ]
				}

			}
, 			{
				"patchline" : 				{
					"destination" : [ "obj-70", 7 ],
					"disabled" : 0,
					"hidden" : 0,
					"midpoints" : [ 143.5, 99.0, 306.945312, 99.0 ],
					"source" : [ "obj-6", 0 ]
				}

			}
, 			{
				"patchline" : 				{
					"destination" : [ "obj-71", 7 ],
					"disabled" : 0,
					"hidden" : 0,
					"midpoints" : [ 143.5, 99.0, 364.695312, 99.0 ],
					"source" : [ "obj-6", 0 ]
				}

			}
, 			{
				"patchline" : 				{
					"destination" : [ "obj-72", 7 ],
					"disabled" : 0,
					"hidden" : 0,
					"midpoints" : [ 143.5, 99.0, 420.75, 99.0 ],
					"source" : [ "obj-6", 0 ]
				}

			}
, 			{
				"patchline" : 				{
					"destination" : [ "obj-73", 7 ],
					"disabled" : 0,
					"hidden" : 0,
					"midpoints" : [ 143.5, 99.0, 480.195312, 99.0 ],
					"source" : [ "obj-6", 0 ]
				}

			}
, 			{
				"patchline" : 				{
					"destination" : [ "obj-1", 47 ],
					"disabled" : 0,
					"hidden" : 0,
					"midpoints" : [ 216.0, 213.0, 199.799042, 213.0 ],
					"source" : [ "obj-68", 15 ]
				}

			}
, 			{
				"patchline" : 				{
					"destination" : [ "obj-1", 46 ],
					"disabled" : 0,
					"hidden" : 0,
					"midpoints" : [ 212.545837, 213.0, 199.041351, 213.0 ],
					"source" : [ "obj-68", 14 ]
				}

			}
, 			{
				"patchline" : 				{
					"destination" : [ "obj-1", 45 ],
					"disabled" : 0,
					"hidden" : 0,
					"midpoints" : [ 209.09166, 213.0, 198.283661, 213.0 ],
					"source" : [ "obj-68", 13 ]
				}

			}
, 			{
				"patchline" : 				{
					"destination" : [ "obj-1", 44 ],
					"disabled" : 0,
					"hidden" : 0,
					"midpoints" : [ 205.637497, 213.0, 197.525955, 213.0 ],
					"source" : [ "obj-68", 12 ]
				}

			}
, 			{
				"patchline" : 				{
					"destination" : [ "obj-1", 43 ],
					"disabled" : 0,
					"hidden" : 0,
					"midpoints" : [ 202.183334, 213.0, 196.768265, 213.0 ],
					"source" : [ "obj-68", 11 ]
				}

			}
, 			{
				"patchline" : 				{
					"destination" : [ "obj-1", 42 ],
					"disabled" : 0,
					"hidden" : 0,
					"midpoints" : [ 198.729172, 222.0, 196.010574, 222.0 ],
					"source" : [ "obj-68", 10 ]
				}

			}
, 			{
				"patchline" : 				{
					"destination" : [ "obj-1", 41 ],
					"disabled" : 0,
					"hidden" : 0,
					"midpoints" : [ 195.274994, 135.0, 195.252884, 135.0 ],
					"source" : [ "obj-68", 9 ]
				}

			}
, 			{
				"patchline" : 				{
					"destination" : [ "obj-1", 40 ],
					"disabled" : 0,
					"hidden" : 0,
					"midpoints" : [ 191.820831, 222.0, 194.495193, 222.0 ],
					"source" : [ "obj-68", 8 ]
				}

			}
, 			{
				"patchline" : 				{
					"destination" : [ "obj-1", 39 ],
					"disabled" : 0,
					"hidden" : 0,
					"midpoints" : [ 188.366669, 213.0, 193.737503, 213.0 ],
					"source" : [ "obj-68", 7 ]
				}

			}
, 			{
				"patchline" : 				{
					"destination" : [ "obj-1", 38 ],
					"disabled" : 0,
					"hidden" : 0,
					"midpoints" : [ 184.912506, 213.0, 192.979813, 213.0 ],
					"source" : [ "obj-68", 6 ]
				}

			}
, 			{
				"patchline" : 				{
					"destination" : [ "obj-1", 37 ],
					"disabled" : 0,
					"hidden" : 0,
					"midpoints" : [ 181.458328, 213.0, 192.222122, 213.0 ],
					"source" : [ "obj-68", 5 ]
				}

			}
, 			{
				"patchline" : 				{
					"destination" : [ "obj-1", 36 ],
					"disabled" : 0,
					"hidden" : 0,
					"midpoints" : [ 178.004166, 213.0, 191.464417, 213.0 ],
					"source" : [ "obj-68", 4 ]
				}

			}
, 			{
				"patchline" : 				{
					"destination" : [ "obj-1", 35 ],
					"disabled" : 0,
					"hidden" : 0,
					"midpoints" : [ 174.550003, 213.0, 190.706726, 213.0 ],
					"source" : [ "obj-68", 3 ]
				}

			}
, 			{
				"patchline" : 				{
					"destination" : [ "obj-1", 34 ],
					"disabled" : 0,
					"hidden" : 0,
					"midpoints" : [ 171.09584, 213.0, 189.949036, 213.0 ],
					"source" : [ "obj-68", 2 ]
				}

			}
, 			{
				"patchline" : 				{
					"destination" : [ "obj-1", 33 ],
					"disabled" : 0,
					"hidden" : 0,
					"midpoints" : [ 167.641663, 213.0, 189.191345, 213.0 ],
					"source" : [ "obj-68", 1 ]
				}

			}
, 			{
				"patchline" : 				{
					"destination" : [ "obj-1", 32 ],
					"disabled" : 0,
					"hidden" : 0,
					"midpoints" : [ 164.1875, 213.0, 188.433655, 213.0 ],
					"source" : [ "obj-68", 0 ]
				}

			}
, 			{
				"patchline" : 				{
					"destination" : [ "obj-1", 63 ],
					"disabled" : 0,
					"hidden" : 0,
					"midpoints" : [ 275.0, 213.0, 211.922119, 213.0 ],
					"source" : [ "obj-69", 15 ]
				}

			}
, 			{
				"patchline" : 				{
					"destination" : [ "obj-1", 62 ],
					"disabled" : 0,
					"hidden" : 0,
					"midpoints" : [ 271.733337, 213.0, 211.164429, 213.0 ],
					"source" : [ "obj-69", 14 ]
				}

			}
, 			{
				"patchline" : 				{
					"destination" : [ "obj-1", 61 ],
					"disabled" : 0,
					"hidden" : 0,
					"midpoints" : [ 268.466675, 213.0, 210.406738, 213.0 ],
					"source" : [ "obj-69", 13 ]
				}

			}
, 			{
				"patchline" : 				{
					"destination" : [ "obj-1", 60 ],
					"disabled" : 0,
					"hidden" : 0,
					"midpoints" : [ 265.200012, 213.0, 209.649033, 213.0 ],
					"source" : [ "obj-69", 12 ]
				}

			}
, 			{
				"patchline" : 				{
					"destination" : [ "obj-1", 59 ],
					"disabled" : 0,
					"hidden" : 0,
					"midpoints" : [ 261.933319, 213.0, 208.891342, 213.0 ],
					"source" : [ "obj-69", 11 ]
				}

			}
, 			{
				"patchline" : 				{
					"destination" : [ "obj-1", 58 ],
					"disabled" : 0,
					"hidden" : 0,
					"midpoints" : [ 258.666656, 213.0, 208.133652, 213.0 ],
					"source" : [ "obj-69", 10 ]
				}

			}
, 			{
				"patchline" : 				{
					"destination" : [ "obj-1", 57 ],
					"disabled" : 0,
					"hidden" : 0,
					"midpoints" : [ 255.399994, 213.0, 207.375961, 213.0 ],
					"source" : [ "obj-69", 9 ]
				}

			}
, 			{
				"patchline" : 				{
					"destination" : [ "obj-1", 56 ],
					"disabled" : 0,
					"hidden" : 0,
					"midpoints" : [ 252.133331, 213.0, 206.618271, 213.0 ],
					"source" : [ "obj-69", 8 ]
				}

			}
, 			{
				"patchline" : 				{
					"destination" : [ "obj-1", 55 ],
					"disabled" : 0,
					"hidden" : 0,
					"midpoints" : [ 248.866669, 213.0, 205.86058, 213.0 ],
					"source" : [ "obj-69", 7 ]
				}

			}
, 			{
				"patchline" : 				{
					"destination" : [ "obj-1", 54 ],
					"disabled" : 0,
					"hidden" : 0,
					"midpoints" : [ 245.600006, 213.0, 205.10289, 213.0 ],
					"source" : [ "obj-69", 6 ]
				}

			}
, 			{
				"patchline" : 				{
					"destination" : [ "obj-1", 53 ],
					"disabled" : 0,
					"hidden" : 0,
					"midpoints" : [ 242.333328, 213.0, 204.3452, 213.0 ],
					"source" : [ "obj-69", 5 ]
				}

			}
, 			{
				"patchline" : 				{
					"destination" : [ "obj-1", 52 ],
					"disabled" : 0,
					"hidden" : 0,
					"midpoints" : [ 239.066666, 213.0, 203.587494, 213.0 ],
					"source" : [ "obj-69", 4 ]
				}

			}
, 			{
				"patchline" : 				{
					"destination" : [ "obj-1", 51 ],
					"disabled" : 0,
					"hidden" : 0,
					"midpoints" : [ 235.800003, 213.0, 202.829803, 213.0 ],
					"source" : [ "obj-69", 3 ]
				}

			}
, 			{
				"patchline" : 				{
					"destination" : [ "obj-1", 50 ],
					"disabled" : 0,
					"hidden" : 0,
					"midpoints" : [ 232.53334, 213.0, 202.072113, 213.0 ],
					"source" : [ "obj-69", 2 ]
				}

			}
, 			{
				"patchline" : 				{
					"destination" : [ "obj-1", 49 ],
					"disabled" : 0,
					"hidden" : 0,
					"midpoints" : [ 229.266663, 213.0, 201.314423, 213.0 ],
					"source" : [ "obj-69", 1 ]
				}

			}
, 			{
				"patchline" : 				{
					"destination" : [ "obj-1", 48 ],
					"disabled" : 0,
					"hidden" : 0,
					"midpoints" : [ 226.0, 213.0, 200.556732, 213.0 ],
					"source" : [ "obj-69", 0 ]
				}

			}
, 			{
				"patchline" : 				{
					"destination" : [ "obj-18", 6 ],
					"disabled" : 0,
					"hidden" : 0,
					"midpoints" : [ 128.5, 66.0, 102.0, 66.0, 102.0, 99.0, 61.625, 99.0 ],
					"source" : [ "obj-7", 0 ]
				}

			}
, 			{
				"patchline" : 				{
					"destination" : [ "obj-31", 6 ],
					"disabled" : 0,
					"hidden" : 0,
					"midpoints" : [ 128.5, 66.0, 122.875, 66.0 ],
					"source" : [ "obj-7", 0 ]
				}

			}
, 			{
				"patchline" : 				{
					"destination" : [ "obj-68", 6 ],
					"disabled" : 0,
					"hidden" : 0,
					"midpoints" : [ 128.5, 99.0, 183.617188, 99.0 ],
					"source" : [ "obj-7", 0 ]
				}

			}
, 			{
				"patchline" : 				{
					"destination" : [ "obj-69", 6 ],
					"disabled" : 0,
					"hidden" : 0,
					"midpoints" : [ 128.5, 99.0, 244.375, 99.0 ],
					"source" : [ "obj-7", 0 ]
				}

			}
, 			{
				"patchline" : 				{
					"destination" : [ "obj-70", 6 ],
					"disabled" : 0,
					"hidden" : 0,
					"midpoints" : [ 128.5, 99.0, 303.953125, 99.0 ],
					"source" : [ "obj-7", 0 ]
				}

			}
, 			{
				"patchline" : 				{
					"destination" : [ "obj-71", 6 ],
					"disabled" : 0,
					"hidden" : 0,
					"midpoints" : [ 128.5, 99.0, 361.703125, 99.0 ],
					"source" : [ "obj-7", 0 ]
				}

			}
, 			{
				"patchline" : 				{
					"destination" : [ "obj-72", 6 ],
					"disabled" : 0,
					"hidden" : 0,
					"midpoints" : [ 128.5, 99.0, 417.5, 99.0 ],
					"source" : [ "obj-7", 0 ]
				}

			}
, 			{
				"patchline" : 				{
					"destination" : [ "obj-73", 6 ],
					"disabled" : 0,
					"hidden" : 0,
					"midpoints" : [ 128.5, 99.0, 477.203125, 99.0 ],
					"source" : [ "obj-7", 0 ]
				}

			}
, 			{
				"patchline" : 				{
					"destination" : [ "obj-1", 79 ],
					"disabled" : 0,
					"hidden" : 0,
					"midpoints" : [ 333.875, 213.0, 224.045197, 213.0 ],
					"source" : [ "obj-70", 15 ]
				}

			}
, 			{
				"patchline" : 				{
					"destination" : [ "obj-1", 78 ],
					"disabled" : 0,
					"hidden" : 0,
					"midpoints" : [ 330.683319, 213.0, 223.287506, 213.0 ],
					"source" : [ "obj-70", 14 ]
				}

			}
, 			{
				"patchline" : 				{
					"destination" : [ "obj-1", 77 ],
					"disabled" : 0,
					"hidden" : 0,
					"midpoints" : [ 327.491669, 213.0, 222.5298, 213.0 ],
					"source" : [ "obj-70", 13 ]
				}

			}
, 			{
				"patchline" : 				{
					"destination" : [ "obj-1", 76 ],
					"disabled" : 0,
					"hidden" : 0,
					"midpoints" : [ 324.299988, 213.0, 221.77211, 213.0 ],
					"source" : [ "obj-70", 12 ]
				}

			}
, 			{
				"patchline" : 				{
					"destination" : [ "obj-1", 75 ],
					"disabled" : 0,
					"hidden" : 0,
					"midpoints" : [ 321.108337, 213.0, 221.01442, 213.0 ],
					"source" : [ "obj-70", 11 ]
				}

			}
, 			{
				"patchline" : 				{
					"destination" : [ "obj-1", 74 ],
					"disabled" : 0,
					"hidden" : 0,
					"midpoints" : [ 317.916656, 213.0, 220.256729, 213.0 ],
					"source" : [ "obj-70", 10 ]
				}

			}
, 			{
				"patchline" : 				{
					"destination" : [ "obj-1", 73 ],
					"disabled" : 0,
					"hidden" : 0,
					"midpoints" : [ 314.725006, 213.0, 219.499039, 213.0 ],
					"source" : [ "obj-70", 9 ]
				}

			}
, 			{
				"patchline" : 				{
					"destination" : [ "obj-1", 72 ],
					"disabled" : 0,
					"hidden" : 0,
					"midpoints" : [ 311.533325, 213.0, 218.741348, 213.0 ],
					"source" : [ "obj-70", 8 ]
				}

			}
, 			{
				"patchline" : 				{
					"destination" : [ "obj-1", 71 ],
					"disabled" : 0,
					"hidden" : 0,
					"midpoints" : [ 308.341675, 213.0, 217.983658, 213.0 ],
					"source" : [ "obj-70", 7 ]
				}

			}
, 			{
				"patchline" : 				{
					"destination" : [ "obj-1", 70 ],
					"disabled" : 0,
					"hidden" : 0,
					"midpoints" : [ 305.149994, 213.0, 217.225967, 213.0 ],
					"source" : [ "obj-70", 6 ]
				}

			}
, 			{
				"patchline" : 				{
					"destination" : [ "obj-1", 69 ],
					"disabled" : 0,
					"hidden" : 0,
					"midpoints" : [ 301.958344, 213.0, 216.468262, 213.0 ],
					"source" : [ "obj-70", 5 ]
				}

			}
, 			{
				"patchline" : 				{
					"destination" : [ "obj-1", 68 ],
					"disabled" : 0,
					"hidden" : 0,
					"midpoints" : [ 298.766663, 213.0, 215.710571, 213.0 ],
					"source" : [ "obj-70", 4 ]
				}

			}
, 			{
				"patchline" : 				{
					"destination" : [ "obj-1", 67 ],
					"disabled" : 0,
					"hidden" : 0,
					"midpoints" : [ 295.575012, 213.0, 214.952881, 213.0 ],
					"source" : [ "obj-70", 3 ]
				}

			}
, 			{
				"patchline" : 				{
					"destination" : [ "obj-1", 66 ],
					"disabled" : 0,
					"hidden" : 0,
					"midpoints" : [ 292.383331, 213.0, 214.19519, 213.0 ],
					"source" : [ "obj-70", 2 ]
				}

			}
, 			{
				"patchline" : 				{
					"destination" : [ "obj-1", 65 ],
					"disabled" : 0,
					"hidden" : 0,
					"midpoints" : [ 289.191681, 213.0, 213.4375, 213.0 ],
					"source" : [ "obj-70", 1 ]
				}

			}
, 			{
				"patchline" : 				{
					"destination" : [ "obj-1", 64 ],
					"disabled" : 0,
					"hidden" : 0,
					"midpoints" : [ 286.0, 213.0, 212.67981, 213.0 ],
					"source" : [ "obj-70", 0 ]
				}

			}
, 			{
				"patchline" : 				{
					"destination" : [ "obj-1", 95 ],
					"disabled" : 0,
					"hidden" : 0,
					"midpoints" : [ 391.625, 213.0, 236.168274, 213.0 ],
					"source" : [ "obj-71", 15 ]
				}

			}
, 			{
				"patchline" : 				{
					"destination" : [ "obj-1", 94 ],
					"disabled" : 0,
					"hidden" : 0,
					"midpoints" : [ 388.433319, 213.0, 235.410583, 213.0 ],
					"source" : [ "obj-71", 14 ]
				}

			}
, 			{
				"patchline" : 				{
					"destination" : [ "obj-1", 93 ],
					"disabled" : 0,
					"hidden" : 0,
					"midpoints" : [ 385.241669, 213.0, 234.652878, 213.0 ],
					"source" : [ "obj-71", 13 ]
				}

			}
, 			{
				"patchline" : 				{
					"destination" : [ "obj-1", 92 ],
					"disabled" : 0,
					"hidden" : 0,
					"midpoints" : [ 382.049988, 213.0, 233.895187, 213.0 ],
					"source" : [ "obj-71", 12 ]
				}

			}
, 			{
				"patchline" : 				{
					"destination" : [ "obj-1", 91 ],
					"disabled" : 0,
					"hidden" : 0,
					"midpoints" : [ 378.858337, 213.0, 233.137497, 213.0 ],
					"source" : [ "obj-71", 11 ]
				}

			}
, 			{
				"patchline" : 				{
					"destination" : [ "obj-1", 90 ],
					"disabled" : 0,
					"hidden" : 0,
					"midpoints" : [ 375.666656, 213.0, 232.379807, 213.0 ],
					"source" : [ "obj-71", 10 ]
				}

			}
, 			{
				"patchline" : 				{
					"destination" : [ "obj-1", 89 ],
					"disabled" : 0,
					"hidden" : 0,
					"midpoints" : [ 372.475006, 213.0, 231.622116, 213.0 ],
					"source" : [ "obj-71", 9 ]
				}

			}
, 			{
				"patchline" : 				{
					"destination" : [ "obj-1", 88 ],
					"disabled" : 0,
					"hidden" : 0,
					"midpoints" : [ 369.283325, 213.0, 230.864426, 213.0 ],
					"source" : [ "obj-71", 8 ]
				}

			}
, 			{
				"patchline" : 				{
					"destination" : [ "obj-1", 87 ],
					"disabled" : 0,
					"hidden" : 0,
					"midpoints" : [ 366.091675, 213.0, 230.106735, 213.0 ],
					"source" : [ "obj-71", 7 ]
				}

			}
, 			{
				"patchline" : 				{
					"destination" : [ "obj-1", 86 ],
					"disabled" : 0,
					"hidden" : 0,
					"midpoints" : [ 362.899994, 213.0, 229.349045, 213.0 ],
					"source" : [ "obj-71", 6 ]
				}

			}
, 			{
				"patchline" : 				{
					"destination" : [ "obj-1", 85 ],
					"disabled" : 0,
					"hidden" : 0,
					"midpoints" : [ 359.708344, 213.0, 228.591339, 213.0 ],
					"source" : [ "obj-71", 5 ]
				}

			}
, 			{
				"patchline" : 				{
					"destination" : [ "obj-1", 84 ],
					"disabled" : 0,
					"hidden" : 0,
					"midpoints" : [ 356.516663, 213.0, 227.833649, 213.0 ],
					"source" : [ "obj-71", 4 ]
				}

			}
, 			{
				"patchline" : 				{
					"destination" : [ "obj-1", 83 ],
					"disabled" : 0,
					"hidden" : 0,
					"midpoints" : [ 353.325012, 213.0, 227.075958, 213.0 ],
					"source" : [ "obj-71", 3 ]
				}

			}
, 			{
				"patchline" : 				{
					"destination" : [ "obj-1", 82 ],
					"disabled" : 0,
					"hidden" : 0,
					"midpoints" : [ 350.133331, 213.0, 226.318268, 213.0 ],
					"source" : [ "obj-71", 2 ]
				}

			}
, 			{
				"patchline" : 				{
					"destination" : [ "obj-1", 81 ],
					"disabled" : 0,
					"hidden" : 0,
					"midpoints" : [ 346.941681, 213.0, 225.560577, 213.0 ],
					"source" : [ "obj-71", 1 ]
				}

			}
, 			{
				"patchline" : 				{
					"destination" : [ "obj-1", 80 ],
					"disabled" : 0,
					"hidden" : 0,
					"midpoints" : [ 343.75, 213.0, 224.802887, 213.0 ],
					"source" : [ "obj-71", 0 ]
				}

			}
, 			{
				"patchline" : 				{
					"destination" : [ "obj-1", 111 ],
					"disabled" : 0,
					"hidden" : 0,
					"midpoints" : [ 450.0, 213.0, 248.291351, 213.0 ],
					"source" : [ "obj-72", 15 ]
				}

			}
, 			{
				"patchline" : 				{
					"destination" : [ "obj-1", 110 ],
					"disabled" : 0,
					"hidden" : 0,
					"midpoints" : [ 446.533325, 213.0, 247.533661, 213.0 ],
					"source" : [ "obj-72", 14 ]
				}

			}
, 			{
				"patchline" : 				{
					"destination" : [ "obj-1", 109 ],
					"disabled" : 0,
					"hidden" : 0,
					"midpoints" : [ 443.066681, 213.0, 246.775955, 213.0 ],
					"source" : [ "obj-72", 13 ]
				}

			}
, 			{
				"patchline" : 				{
					"destination" : [ "obj-1", 108 ],
					"disabled" : 0,
					"hidden" : 0,
					"midpoints" : [ 439.600006, 213.0, 246.018265, 213.0 ],
					"source" : [ "obj-72", 12 ]
				}

			}
, 			{
				"patchline" : 				{
					"destination" : [ "obj-1", 107 ],
					"disabled" : 0,
					"hidden" : 0,
					"midpoints" : [ 436.133331, 213.0, 245.260574, 213.0 ],
					"source" : [ "obj-72", 11 ]
				}

			}
, 			{
				"patchline" : 				{
					"destination" : [ "obj-1", 106 ],
					"disabled" : 0,
					"hidden" : 0,
					"midpoints" : [ 432.666656, 213.0, 244.502884, 213.0 ],
					"source" : [ "obj-72", 10 ]
				}

			}
, 			{
				"patchline" : 				{
					"destination" : [ "obj-1", 105 ],
					"disabled" : 0,
					"hidden" : 0,
					"midpoints" : [ 429.200012, 213.0, 243.745193, 213.0 ],
					"source" : [ "obj-72", 9 ]
				}

			}
, 			{
				"patchline" : 				{
					"destination" : [ "obj-1", 104 ],
					"disabled" : 0,
					"hidden" : 0,
					"midpoints" : [ 425.733337, 213.0, 242.987503, 213.0 ],
					"source" : [ "obj-72", 8 ]
				}

			}
, 			{
				"patchline" : 				{
					"destination" : [ "obj-1", 103 ],
					"disabled" : 0,
					"hidden" : 0,
					"midpoints" : [ 422.266663, 213.0, 242.229813, 213.0 ],
					"source" : [ "obj-72", 7 ]
				}

			}
, 			{
				"patchline" : 				{
					"destination" : [ "obj-1", 102 ],
					"disabled" : 0,
					"hidden" : 0,
					"midpoints" : [ 418.799988, 213.0, 241.472122, 213.0 ],
					"source" : [ "obj-72", 6 ]
				}

			}
, 			{
				"patchline" : 				{
					"destination" : [ "obj-1", 101 ],
					"disabled" : 0,
					"hidden" : 0,
					"midpoints" : [ 415.333344, 213.0, 240.714417, 213.0 ],
					"source" : [ "obj-72", 5 ]
				}

			}
, 			{
				"patchline" : 				{
					"destination" : [ "obj-1", 100 ],
					"disabled" : 0,
					"hidden" : 0,
					"midpoints" : [ 411.866669, 213.0, 239.956726, 213.0 ],
					"source" : [ "obj-72", 4 ]
				}

			}
, 			{
				"patchline" : 				{
					"destination" : [ "obj-1", 99 ],
					"disabled" : 0,
					"hidden" : 0,
					"midpoints" : [ 408.399994, 213.0, 239.199036, 213.0 ],
					"source" : [ "obj-72", 3 ]
				}

			}
, 			{
				"patchline" : 				{
					"destination" : [ "obj-1", 98 ],
					"disabled" : 0,
					"hidden" : 0,
					"midpoints" : [ 404.933319, 213.0, 238.441345, 213.0 ],
					"source" : [ "obj-72", 2 ]
				}

			}
, 			{
				"patchline" : 				{
					"destination" : [ "obj-1", 97 ],
					"disabled" : 0,
					"hidden" : 0,
					"midpoints" : [ 401.466675, 213.0, 237.683655, 213.0 ],
					"source" : [ "obj-72", 1 ]
				}

			}
, 			{
				"patchline" : 				{
					"destination" : [ "obj-1", 96 ],
					"disabled" : 0,
					"hidden" : 0,
					"midpoints" : [ 398.0, 213.0, 236.925964, 213.0 ],
					"source" : [ "obj-72", 0 ]
				}

			}
, 			{
				"patchline" : 				{
					"destination" : [ "obj-1", 127 ],
					"disabled" : 0,
					"hidden" : 0,
					"midpoints" : [ 507.125, 213.0, 260.414429, 213.0 ],
					"source" : [ "obj-73", 15 ]
				}

			}
, 			{
				"patchline" : 				{
					"destination" : [ "obj-1", 126 ],
					"disabled" : 0,
					"hidden" : 0,
					"midpoints" : [ 503.933319, 213.0, 259.656738, 213.0 ],
					"source" : [ "obj-73", 14 ]
				}

			}
, 			{
				"patchline" : 				{
					"destination" : [ "obj-1", 125 ],
					"disabled" : 0,
					"hidden" : 0,
					"midpoints" : [ 500.741669, 213.0, 258.899048, 213.0 ],
					"source" : [ "obj-73", 13 ]
				}

			}
, 			{
				"patchline" : 				{
					"destination" : [ "obj-1", 124 ],
					"disabled" : 0,
					"hidden" : 0,
					"midpoints" : [ 497.549988, 213.0, 258.141357, 213.0 ],
					"source" : [ "obj-73", 12 ]
				}

			}
, 			{
				"patchline" : 				{
					"destination" : [ "obj-1", 123 ],
					"disabled" : 0,
					"hidden" : 0,
					"midpoints" : [ 494.358337, 213.0, 257.383667, 213.0 ],
					"source" : [ "obj-73", 11 ]
				}

			}
, 			{
				"patchline" : 				{
					"destination" : [ "obj-1", 122 ],
					"disabled" : 0,
					"hidden" : 0,
					"midpoints" : [ 491.166656, 213.0, 256.625977, 213.0 ],
					"source" : [ "obj-73", 10 ]
				}

			}
, 			{
				"patchline" : 				{
					"destination" : [ "obj-1", 121 ],
					"disabled" : 0,
					"hidden" : 0,
					"midpoints" : [ 487.975006, 213.0, 255.868271, 213.0 ],
					"source" : [ "obj-73", 9 ]
				}

			}
, 			{
				"patchline" : 				{
					"destination" : [ "obj-1", 120 ],
					"disabled" : 0,
					"hidden" : 0,
					"midpoints" : [ 484.783325, 213.0, 255.11058, 213.0 ],
					"source" : [ "obj-73", 8 ]
				}

			}
, 			{
				"patchline" : 				{
					"destination" : [ "obj-1", 119 ],
					"disabled" : 0,
					"hidden" : 0,
					"midpoints" : [ 481.591675, 213.0, 254.35289, 213.0 ],
					"source" : [ "obj-73", 7 ]
				}

			}
, 			{
				"patchline" : 				{
					"destination" : [ "obj-1", 118 ],
					"disabled" : 0,
					"hidden" : 0,
					"midpoints" : [ 478.399994, 213.0, 253.5952, 213.0 ],
					"source" : [ "obj-73", 6 ]
				}

			}
, 			{
				"patchline" : 				{
					"destination" : [ "obj-1", 117 ],
					"disabled" : 0,
					"hidden" : 0,
					"midpoints" : [ 475.208344, 213.0, 252.837494, 213.0 ],
					"source" : [ "obj-73", 5 ]
				}

			}
, 			{
				"patchline" : 				{
					"destination" : [ "obj-1", 116 ],
					"disabled" : 0,
					"hidden" : 0,
					"midpoints" : [ 472.016663, 213.0, 252.079803, 213.0 ],
					"source" : [ "obj-73", 4 ]
				}

			}
, 			{
				"patchline" : 				{
					"destination" : [ "obj-1", 115 ],
					"disabled" : 0,
					"hidden" : 0,
					"midpoints" : [ 468.825012, 213.0, 251.322113, 213.0 ],
					"source" : [ "obj-73", 3 ]
				}

			}
, 			{
				"patchline" : 				{
					"destination" : [ "obj-1", 114 ],
					"disabled" : 0,
					"hidden" : 0,
					"midpoints" : [ 465.633331, 213.0, 250.564423, 213.0 ],
					"source" : [ "obj-73", 2 ]
				}

			}
, 			{
				"patchline" : 				{
					"destination" : [ "obj-1", 113 ],
					"disabled" : 0,
					"hidden" : 0,
					"midpoints" : [ 462.441681, 213.0, 249.806732, 213.0 ],
					"source" : [ "obj-73", 1 ]
				}

			}
, 			{
				"patchline" : 				{
					"destination" : [ "obj-1", 112 ],
					"disabled" : 0,
					"hidden" : 0,
					"midpoints" : [ 459.25, 213.0, 249.049042, 213.0 ],
					"source" : [ "obj-73", 0 ]
				}

			}
, 			{
				"patchline" : 				{
					"destination" : [ "obj-18", 5 ],
					"disabled" : 0,
					"hidden" : 0,
					"midpoints" : [ 113.5, 51.0, 105.0, 51.0, 105.0, 99.0, 58.4375, 99.0 ],
					"source" : [ "obj-8", 0 ]
				}

			}
, 			{
				"patchline" : 				{
					"destination" : [ "obj-31", 5 ],
					"disabled" : 0,
					"hidden" : 0,
					"midpoints" : [ 113.5, 99.0, 119.5625, 99.0 ],
					"source" : [ "obj-8", 0 ]
				}

			}
, 			{
				"patchline" : 				{
					"destination" : [ "obj-68", 5 ],
					"disabled" : 0,
					"hidden" : 0,
					"midpoints" : [ 113.5, 99.0, 180.378906, 99.0 ],
					"source" : [ "obj-8", 0 ]
				}

			}
, 			{
				"patchline" : 				{
					"destination" : [ "obj-69", 5 ],
					"disabled" : 0,
					"hidden" : 0,
					"midpoints" : [ 113.5, 99.0, 241.3125, 99.0 ],
					"source" : [ "obj-8", 0 ]
				}

			}
, 			{
				"patchline" : 				{
					"destination" : [ "obj-70", 5 ],
					"disabled" : 0,
					"hidden" : 0,
					"midpoints" : [ 113.5, 99.0, 300.960938, 99.0 ],
					"source" : [ "obj-8", 0 ]
				}

			}
, 			{
				"patchline" : 				{
					"destination" : [ "obj-71", 5 ],
					"disabled" : 0,
					"hidden" : 0,
					"midpoints" : [ 113.5, 99.0, 358.710938, 99.0 ],
					"source" : [ "obj-8", 0 ]
				}

			}
, 			{
				"patchline" : 				{
					"destination" : [ "obj-72", 5 ],
					"disabled" : 0,
					"hidden" : 0,
					"midpoints" : [ 113.5, 99.0, 414.25, 99.0 ],
					"source" : [ "obj-8", 0 ]
				}

			}
, 			{
				"patchline" : 				{
					"destination" : [ "obj-73", 5 ],
					"disabled" : 0,
					"hidden" : 0,
					"midpoints" : [ 113.5, 99.0, 474.210938, 99.0 ],
					"source" : [ "obj-8", 0 ]
				}

			}
, 			{
				"patchline" : 				{
					"destination" : [ "obj-18", 4 ],
					"disabled" : 0,
					"hidden" : 0,
					"midpoints" : [ 98.5, 99.0, 55.25, 99.0 ],
					"source" : [ "obj-9", 0 ]
				}

			}
, 			{
				"patchline" : 				{
					"destination" : [ "obj-31", 4 ],
					"disabled" : 0,
					"hidden" : 0,
					"midpoints" : [ 98.5, 60.0, 105.0, 60.0, 105.0, 99.0, 116.25, 99.0 ],
					"source" : [ "obj-9", 0 ]
				}

			}
, 			{
				"patchline" : 				{
					"destination" : [ "obj-68", 4 ],
					"disabled" : 0,
					"hidden" : 0,
					"midpoints" : [ 98.5, 60.0, 105.0, 60.0, 105.0, 99.0, 177.140625, 99.0 ],
					"source" : [ "obj-9", 0 ]
				}

			}
, 			{
				"patchline" : 				{
					"destination" : [ "obj-69", 4 ],
					"disabled" : 0,
					"hidden" : 0,
					"midpoints" : [ 98.5, 60.0, 105.0, 60.0, 105.0, 99.0, 238.25, 99.0 ],
					"source" : [ "obj-9", 0 ]
				}

			}
, 			{
				"patchline" : 				{
					"destination" : [ "obj-70", 4 ],
					"disabled" : 0,
					"hidden" : 0,
					"midpoints" : [ 98.5, 60.0, 105.0, 60.0, 105.0, 99.0, 297.96875, 99.0 ],
					"source" : [ "obj-9", 0 ]
				}

			}
, 			{
				"patchline" : 				{
					"destination" : [ "obj-71", 4 ],
					"disabled" : 0,
					"hidden" : 0,
					"midpoints" : [ 98.5, 60.0, 105.0, 60.0, 105.0, 99.0, 355.71875, 99.0 ],
					"source" : [ "obj-9", 0 ]
				}

			}
, 			{
				"patchline" : 				{
					"destination" : [ "obj-72", 4 ],
					"disabled" : 0,
					"hidden" : 0,
					"midpoints" : [ 98.5, 60.0, 105.0, 60.0, 105.0, 99.0, 411.0, 99.0 ],
					"source" : [ "obj-9", 0 ]
				}

			}
, 			{
				"patchline" : 				{
					"destination" : [ "obj-73", 4 ],
					"disabled" : 0,
					"hidden" : 0,
					"midpoints" : [ 98.5, 60.0, 105.0, 60.0, 105.0, 99.0, 471.21875, 99.0 ],
					"source" : [ "obj-9", 0 ]
				}

			}
 ],
		"dependency_cache" : [ 			{
				"name" : "muxer8way.maxpat",
				"bootpath" : "/Users/angelman/Desktop/com_sim",
				"patcherrelativepath" : ".",
				"type" : "JSON",
				"implicit" : 1
			}
, 			{
				"name" : "muxer4way.maxpat",
				"bootpath" : "/Users/angelman/Desktop/com_sim",
				"patcherrelativepath" : ".",
				"type" : "JSON",
				"implicit" : 1
			}
, 			{
				"name" : "muxer16.maxpat",
				"bootpath" : "/Users/angelman/Desktop/com_sim",
				"patcherrelativepath" : ".",
				"type" : "JSON",
				"implicit" : 1
			}
, 			{
				"name" : "muxer.maxpat",
				"bootpath" : "/Users/angelman/Desktop/com_sim",
				"patcherrelativepath" : ".",
				"type" : "JSON",
				"implicit" : 1
			}
, 			{
				"name" : "and.maxpat",
				"bootpath" : "/Users/angelman/Desktop/com_sim",
				"patcherrelativepath" : ".",
				"type" : "JSON",
				"implicit" : 1
			}
, 			{
				"name" : "or.maxpat",
				"bootpath" : "/Users/angelman/Desktop/com_sim",
				"patcherrelativepath" : ".",
				"type" : "JSON",
				"implicit" : 1
			}
, 			{
				"name" : "not.maxpat",
				"bootpath" : "/Users/angelman/Desktop/com_sim",
				"patcherrelativepath" : ".",
				"type" : "JSON",
				"implicit" : 1
			}
, 			{
				"name" : "register.maxpat",
				"bootpath" : "/Users/angelman/Desktop/com_sim",
				"patcherrelativepath" : ".",
				"type" : "JSON",
				"implicit" : 1
			}
, 			{
				"name" : "bit.maxpat",
				"bootpath" : "/Users/angelman/Desktop/com_sim",
				"patcherrelativepath" : ".",
				"type" : "JSON",
				"implicit" : 1
			}
, 			{
				"name" : "dmux8way.maxpat",
				"bootpath" : "/Users/angelman/Desktop/com_sim",
				"patcherrelativepath" : ".",
				"type" : "JSON",
				"implicit" : 1
			}
, 			{
				"name" : "dmuxer.maxpat",
				"bootpath" : "/Users/angelman/Desktop/com_sim",
				"patcherrelativepath" : ".",
				"type" : "JSON",
				"implicit" : 1
			}
, 			{
				"name" : "dmux4way.maxpat",
				"bootpath" : "/Users/angelman/Desktop/com_sim",
				"patcherrelativepath" : ".",
				"type" : "JSON",
				"implicit" : 1
			}
 ]
	}

}
